

<svg version="1.1" xmlns="http://www.w3.org/2000/svg">
    <defs>
        <g id="01">
            <path d="M297.6,0c138.1,0,290.5,152.5,290.5,290.5S435.7,581.1,297.6,581.1S7.1,428.6,7.1,290.5S159.6,0,297.6,0z"/>
            <path d="M297.6,5c63.6,0,135.6,34.3,193.7,91.9c57.6,57.6,91.9,130.1,91.9,193.7S549,426.1,491.3,484.2 c-57.6,57.6-130.1,91.9-193.7,91.9S162,541.8,103.9,484.2C46.3,426.1,12,354.1,12,290.5S46.3,155,103.9,96.9 C162,39.2,234.1,5,297.6,5 M297.6,0C159.6,0,7.1,152.5,7.1,290.5S159.6,581,297.6,581s290.5-152.5,290.5-290.5S435.7,0,297.6,0 L297.6,0z"
                  fill="#dfdfdf"/>
            <path d="M412.4,474.3H223.6c-8.9,0-16.4-7.5-16.4-16.4v-34.8h-24.3c-8.9,0-16.4-7.5-16.4-16.4V134.1 c0-8.9,7.5-16.4,16.4-16.4h52.6v-3.5c0-4,3.5-7.4,7.4-7.4h68.5c4,0,7.4,3.5,7.4,7.4v3.5h52.6c8.9,0,16.4,7.5,16.4,16.4v34.8h24.3 c8.9,0,16.4,7.4,16.4,16.4V458C428.8,466.9,421.3,474.3,412.4,474.3z M369.7,136.1H319v2c0,4-3.5,7.4-7.4,7.4H243 c-4,0-7.4-3.5-7.4-7.4v-2h-50.7v268.7h22.3V185.3c0-8.9,7.4-16.4,16.4-16.4h52.6v-3.5c0-4,3.5-7.4,7.4-7.4h68.5c4,0,7.5,3.5,7.5,7.4 v3.5h9.9L369.7,136.1L369.7,136.1z M410.4,187.7h-50.7v2c0,4-3.5,7.4-7.5,7.4h-68.5c-4,0-7.4-3.5-7.4-7.4v-2h-50.7v268.7h184.8 V187.7z M381.6,358.1H254.4v-25.8h127.1v25.8H381.6z M381.6,411.2H254.4v-25.8h127.1v25.8H381.6z M329.4,304.5h-22.3v-28.8h-28.8 v-22.8h28.8V224h22.3v28.8h28.8v22.8h-28.8V304.5z"
                  fill="currentColor"/>
        </g>
        <g id="02">
            <path d="M297.6,0c138.1,0,290.5,152.5,290.5,290.5S435.7,581.1,297.6,581.1S7.1,428.6,7.1,290.5S159.6,0,297.6,0z"/>
            <path d="M297.6,5c63.6,0,135.6,34.3,193.7,91.9c57.6,57.6,91.9,130.1,91.9,193.7S549,426.1,491.3,484.2 c-57.6,57.6-130.1,91.9-193.7,91.9S162,541.8,103.9,484.2C46.3,426.1,12,354.1,12,290.5S46.3,155,103.9,96.9 C162,39.2,234.1,5,297.6,5 M297.6,0C159.6,0,7.1,152.5,7.1,290.5S159.6,581,297.6,581s290.5-152.5,290.5-290.5S435.7,0,297.6,0 L297.6,0z"
                  fill="#dfdfdf"/>
            <path d="M472.5,243.9H122.8c-2,0-3.5-1-4.5-2.5c-2-2.5-1-6,1.5-7.4l174.8-119.7l0,0c2-1.5,4.5-1.5,6.5,0 l174.8,119.2c1.5,1,2.5,2.5,2.5,4.5C478.4,241.4,475.9,243.9,472.5,243.9z M297.6,125.7L140.2,232.9h314.9L297.6,125.7z M243.5,190.7l50.7-32.8c1.5-1,3-1,4-1l0,0c0.5,0,1.5,0.5,2,1l0,0l50.7,32.8c2.5,1.5,3.5,5,1.5,7.4c-1.5,2.5-5.5,3-7.9,1.5 l-47.7-30.8L250,199.7c-2.5,1.5-6,1-7.9-1.5C240.5,195.7,241,192.2,243.5,190.7z M201.8,254.8c3,0,5.5,2.5,5.5,5.5v130.6 c0,3-2.5,5.5-5.5,5.5H168c-3,0-5.5-2.5-5.5-5.5V260.3c0-3,2.5-5.5,5.5-5.5s5.5,2.5,5.5,5.5v125.2h22.4V260.3 C195.8,257.3,198.3,254.8,201.8,254.8z M275.3,254.8c3,0,5.5,2.5,5.5,5.5v130.6c0,3-2.5,5.5-5.5,5.5h-33.8c-3,0-5.5-2.5-5.5-5.5 V260.3c0-3,2.5-5.5,5.5-5.5c3,0,5.5,2.5,5.5,5.5v125.2h22.4V260.3C269.3,257.3,271.8,254.8,275.3,254.8z M354.3,254.8 c3,0,5.5,2.5,5.5,5.5v130.6c0,3-2.5,5.5-5.5,5.5H320c-3,0-5.5-2.5-5.5-5.5V260.3c0-3,2.5-5.5,5.5-5.5c3,0,5.5,2.5,5.5,5.5v125.2 h22.8V260.3C348.3,257.3,350.8,254.8,354.3,254.8z M447.6,412.7c0,3-2.5,5.5-5.5,5.5H153.1c-3,0-5.5-2.5-5.5-5.5 c0-3,2.5-5.5,5.5-5.5h289.1C445.1,407.3,447.6,409.7,447.6,412.7z M427.8,254.8c3,0,5.5,2.5,5.5,5.5v130.6c0,3-2.5,5.5-5.5,5.5H394 c-3,0-5.5-2.5-5.5-5.5V260.3c0-3,2.5-5.5,5.5-5.5c3,0,5.5,2.5,5.5,5.5v125.2h22.8V260.3C421.8,257.3,424.3,254.8,427.8,254.8z M137.7,428.6h319.4c3,0,5.5,2.5,5.5,5.5s-2.5,5.5-5.5,5.5H137.7c-3,0-5.5-2.5-5.5-5.5C132.2,431.1,134.7,428.6,137.7,428.6z"
                  fill="currentColor"/>
        </g>
        <g id="03">
            <path d="M297.6,0c138.1,0,290.5,152.5,290.5,290.5S435.7,581.1,297.6,581.1S7.1,428.6,7.1,290.5S159.6,0,297.6,0z"/>
            <path d="M297.6,5c63.6,0,135.6,34.3,193.7,91.9c57.6,57.6,91.9,130.1,91.9,193.7S549,426.1,491.3,484.2 c-57.6,57.6-130.1,91.9-193.7,91.9S162,541.8,103.9,484.2C46.3,426.1,12,354.1,12,290.5S46.3,155,103.9,96.9 C162,39.2,234.1,5,297.6,5 M297.6,0C159.6,0,7.1,152.5,7.1,290.5S159.6,581,297.6,581s290.5-152.5,290.5-290.5S435.7,0,297.6,0 L297.6,0z"
                  fill="#dfdfdf"/>
            <path d="M499.3,308.4c-1,3.5-2,6.5-3.5,8.9c-0.5,1-1.5,2-2,3c-1,1-1.5,2-2.5,2.5l-0.5,0.5l0,0h-0.5l0,0h-0.5h-0.5 l0,0l-0.5,0.5h0.5l0,0l-0.5,1h-0.5h0.5h-1l-0.5,0.5h-1h-0.5h-0.5h0.5h-0.5h-0.5h-0.5h-0.5h-1c-0.5,0-1.5,0-2.5,0c-1,0-2,0-2.5,0 h-1.5h-0.5h-0.5c-0.5,0-1,0-1,0H474l0,0h-0.5H473h-1c-0.5,0-0.5,0-1,0h0.5H471h0.5v-0.5l4.5,1h-0.5h2c0,0,0.5,0,1,0h3 c0.5,0,1,0,1.5,0h1h0.5h0.5h0.5h1l0,0h0.5h0.5h0.5l0,0h1h0.5h0.5h0.5c-6,0.5-10.9,0.5-14.4-1c0.5-0.5,0.5-1,1-1.5c1-1,2-2.5,3-5 c1-2.5,2-4.5,2.5-7l-2,1.5l0,0l-0.5,1h-0.5l-0.5-0.5l0,0c0,0.5,0,1-0.5,1h-0.5l0,0l-0.5,1c-0.5,0.5-0.5,1-0.5,1c0,0.5,0,0.5-0.5,1 c0,0-0.5,0.5-0.5,1s-0.5,1-0.5,1c-0.5,0.5-0.5,1-0.5,1s0,0.5-0.5,0.5l0,0H474h-0.5l0,0h0.5v0.5h-0.5l-0.5,0.5h-1l1-1h0.5l0,0h0.5 l0.5-0.5v-0.5v-0.5h0.5v-0.5h0.5l0,0c0.5-0.5,0.5-1,1-1.5c0,0,0,0.5-0.5,0.5l-0.5,1H475v-0.5v-0.5h0.5l0,0c0,0,0-0.5,0.5-0.5 l1.5-2.5v-0.5c0-0.5,0-0.5,0-0.5l0,0l0.5-1h0.5v0.5h0.5v0.5l0.5-0.5v-0.5l-0.5,0.5v-0.5h0.5v-0.5h0.5c0-0.5,0-0.5,0.5-0.5h-0.5 l-0.5,0.5l0,0l-0.5,1h-0.5h-0.5l0,0c-1.5,1.5-3,3-5,4c-1.5,1.5-3.5,3-5,5c-1.5,1-2.5,2-3,3h-0.5l0,0l-1,0.5c-2,2-4.5,4-6.5,6.5 c-2,2-4.5,4.5-6.5,7c-1.5,1.5-2.5,3-3.5,4.5c-1,1.5-2.5,3-3.5,4.5l-8.4,9.4c-1,1.5-1.5,3-2.5,4.5c-0.5,1.5-1.5,3-2,4.5l-1,2.5 c-0.5,1-1,1.5-1,2l-0.5,1v0.5c0,0,0,0.5,0,1.5c0,1,0,1.5-0.5,2.5v0.5v0.5v0.5h-0.5v0.5c0,1,0.5,2,1.5,3.5l2.5,3h0.5h0.5 c0.5,0,0.5,0,1-0.5h0.5l0,0h-0.5h-0.5l1-0.5l0,0l1-0.5c0.5-0.5,1.5-1.5,2-2c0.5-0.5,1-0.5,1-0.5v1h0.5h0.5h-0.5h0.5h0.5l0,0h0.5 h0.5h-0.5h0.5h0.5h0.5h0.5l0,0h0.5l0,0l0.5-0.5l0,0l1-0.5h0.5h-0.5l1.5-0.5c1-0.5,2-0.5,3.5-1c1.5-0.5,3-1,5-2 c0-0.5,0.5-0.5,1.5-0.5l4-1l1.5-1h1.5c2-0.5,4-1,6.5-1.5c2-0.5,4.5-0.5,7.4-1c0.5,0,1.5,0,3,0c0,0.5,0.5,1,1,1c0.5,0,1,0.5,1,1 c1,0,1,0,1.5,0c0,0,1,0.5,2,1l-1.5,1h-3c-2.5,0.5-6,1.5-9.9,3c-4,1.5-8.9,4-15.9,7.9l-1,0.5h-0.5l-5.5,3.5c-1,1-1.5,1.5-2,2.5 c-0.5,1-1.5,1.5-2,2.5c-1.5,0-2.5,0-3.5,0h-0.5c-4-0.5-7-1.5-9.9-3c-3-1.5-4.5-3-4.5-4c-1-1-2-2-2.5-2.5c-0.5-1-1-1.5-1.5-2.5 l-0.5-0.5l0,0c0-0.5,0-0.5,0-0.5v-0.5l-1-2.5c0-2,0-4.5,0.5-7.5c0.5-3,1-5.5,2-7.9s1.5-5,2.5-7.5c1-2.5,1.5-4,2.5-5.5l5-7.9 c1.5-2.5,3.5-5,5.5-7.9h0.5l0,0h0.5l0.5-0.5h0.5v-0.5l0,0c1-1,1.5-2,2.5-3.5l3-3.5h0.5c1-1.5,2-2.5,3-4l1-1l-2,1.5 c-0.5,0.5-0.5,1-1,1.5l0,0v0.5h0.5l0,0l-1,1v0h0.5h-0.5h-0.5l-0.5,1l0.5-0.5l0,0h-0.5l0,0l-0.5,0.5l0,0l-1,0.5c0,0.5,0,0.5,0,0.5 h0.5l-2.5,2.5l-0.5,1l-0.5,0.5h-0.5l1-1.5v-0.5h0.5h0.5h-0.5l1.5-1l0.5-1c0,0,0.5,0,1-0.5h0.5l0.5-1h-0.5h0.5l1.5-1.5v-0.5h0.5 c0.5-0.5,1-0.5,1.5-1l1-0.5l0,0h0.5l0.5-1v0.5h-0.5l-0.5,0.5h0.5l0.5-0.5h0.5v-0.5l0,0l0.5-0.5l0,0h0.5h-0.5l0.5-0.5h0.5l0.5-0.5 h-0.5l0.5-0.5l0.5-1h0.5c0,0,0-0.5,0.5-1l0,0l0.5-1h0.5h0.5l0.5-0.5h0.5v-0.5l3-2l0,0l1-0.5l1-0.5h0.5h0.5l0,0l0.5-0.5H463l2-1.5 h-6h0.5h0.5v-0.5h0.5c0,0,0.5-0.5,1-0.5c0.5-0.5,0.5-0.5,0.5-1l1.5-1l-1,1h0.5l0,0c0,0.5,0,0.5,0.5,0l1.5-1h-0.5h0.5h-0.5l-0.5-6.5 h0.5l0,0l0.5-0.5l1-0.5l0.5-0.5h0.5h0.5l0,0l0,0l0,0h0.5l0.5-0.5H468l0.5-0.5h0.5l0,0h0.5h0.5l1-0.5h0.5V300h0.5h-0.5l1-0.5h-1h0.5 l0.5-0.5h0.5l0,0h0.5h0.5l0,0l0,0l1-0.5l2-1h0.5l0,0c2-1,4.5-2,7.9-2.5c3.5-0.5,6.5-0.5,9.4,0c3,0.5,4.5,1.5,5.5,3.5 c0.5,1.5,1,3,1,4C500.8,302,500.3,304.5,499.3,308.4z M484.4,325.3L484.4,325.3h0.5H484.4z M486.4,324.8h-0.5h-0.5 c-0.5,0-0.5,0,0,0C485.9,325.3,486.4,324.8,486.4,324.8L486.4,324.8z M435.7,382.4L435.7,382.4l-1,0.5L435.7,382.4z M438.7,327.8 L438.7,327.8l-1,0.5v0.5L438.7,327.8L438.7,327.8L438.7,327.8z M447.6,319.4c0,0.5-0.5,0.5-0.5,0.5l-0.5,1l2-2.5L447.6,319.4z M454.1,313.4c-0.5,0.5-1,0.5-1.5,1l-1,1L454.1,313.4z M453.6,311.9l-0.5,0.5l1-0.5H453.6z M454.6,312.4L454.6,312.4 c-1,0.5-1.5,0.5-1.5,1h-0.5l-1.5,1.5l-0.5,0.5c-0.5,0-0.5,0.5-0.5,0.5v0.5l-1,1l1.5-1.5h0.5l0.5-0.5l0,0h0.5c0-0.5,0.5-0.5,1-1h0.5 h0.5v-1.5L454.6,312.4l1-0.5C455.1,312.4,454.6,312.4,454.6,312.4z M464.5,303L464.5,303v0.5V303L464.5,303z M439.2,380.4l-1,0.5 h-0.5c1-0.5,2-0.5,2.5-1c0.5-0.5,1-0.5,1.5-1l-0.5,1l-1,0.5H439.2z M438.2,381.4L438.2,381.4L438.2,381.4L438.2,381.4L438.2,381.4 L438.2,381.4z M437.7,381.4L437.7,381.4L437.7,381.4L437.7,381.4z M486.4,325.3L486.4,325.3L486.4,325.3L486.4,325.3z M474.5,320.3 L474.5,320.3L474.5,320.3L474.5,320.3z M433.7,383.9L433.7,383.9L433.7,383.9L433.7,383.9z M441.7,379L441.7,379L441.7,379 l-0.5,0.5L441.7,379z M442.2,394.8h-0.5l0,0H442.2L442.2,394.8z M440.2,394.8h1l-6,1L440.2,394.8z M436.7,330.8L436.7,330.8 L436.7,330.8L436.7,330.8z M436.2,331.8C436.7,331.8,436.7,330.8,436.2,331.8L436.2,331.8L436.2,331.8z M435.7,331.8L435.7,331.8 L435.7,331.8l-1,1l-0.5,0.5l0,0v0.5h-0.5h0.5h-0.5l1-1h-0.5l0.5-1l0,0H435.7L435.7,331.8v-1V331.8l0.5-0.5h0.5L435.7,331.8 L435.7,331.8z M432.7,334.8l0.5-0.5C433.2,334.3,433.2,334.3,432.7,334.8L432.7,334.8z M433.2,334.3l-0.5,0.5l0,0L433.2,334.3 L433.2,334.3z M436.7,329.3L436.7,329.3l-0.5,1L436.7,329.3L436.7,329.3z M436.7,330.3l-0.5,0.5L436.7,330.3L436.7,330.3z M457.1,309.4L457.1,309.4L457.1,309.4L457.1,309.4z M466,302L466,302L466,302L466,302z M467,300.5L467,300.5L467,300.5L467,300.5 L467,300.5z M470.5,298.5L470.5,298.5L470.5,298.5L470.5,298.5z M495.3,280.6c-1-2-3-4.5-5.5-7.5s-6-7-9.9-10.4 c-4-4-9.4-7.5-15.4-10.9c-6-3.5-12.9-6-20.9-7.5c-7.5-1.5-15.9-1.5-24.3-0.5c-8.4,1-16.9,3.5-25.3,7c-8.4,3.5-17.4,7-26.3,10.4 c-8.9,3.5-17.9,7-26.8,9.4c-1,0.5-2,1-3.5,1c-1,0.5-2.5,0.5-3.5,1c-2,0.5-4.5,1.5-6.5,2c-2,0.5-4.5,1.5-6.5,2c-1,0.5-2,0.5-3.5,1 c-1,0.5-2,0.5-3.5,1c-17.4,4.5-34.3,7.5-48.7,8.9c-2,0-3.5,0.5-5.5,0.5c-1.5,0-3.5,0.5-5,0.5c-3.5,0.5-6.5,0.5-9.4,0.5 c-6,0.5-10.9,0.5-15.4,0.5c-3.5,0-6.5,0-8.4,0c2.5-9.4,3.5-15.9,3.5-18.4c0-0.5,0-0.5,0-1c1.5,0,3,0,5,0c4,0,8.9,0,14.4,0.5 c3,0,6,0,8.9,0c1.5,0,3,0,5,0c1.5,0,3.5,0,5,0c13.9-0.5,29.8-2.5,46.7-5.5c1,0,2-0.5,3-0.5s2-0.5,3-0.5c2-0.5,4.5-1,6.5-1.5 c2-0.5,4.5-1,6.5-1.5c1-0.5,2-0.5,3.5-1c1-0.5,2-0.5,3.5-1c8.9-2.5,17.9-5,26.8-7.9s17.9-6,26.8-8.4c8.9-3,18.4-5,27.3-5.5 c8.9-0.5,17.9,0.5,26.3,2.5c7.9,2,15.4,5.5,21.4,9.4c6,4,10.9,7.9,15.4,12.4c4,4,7.5,7.9,9.4,11.4c2.5,3.5,4,6,5,7.9 c1,2,1.5,3,1.5,3h-0.5C497.3,283.1,496.8,282.1,495.3,280.6z M365.2,198.2c-9.4,0-10.4,4.5-10.4,4.5v-6.5l30.3-27.8l50.2,30.8v5.5 c0,0-3.5-7-13.9-7c-12.4,0-12.4,7.4-12.4,7.4v28.3c-1,0-2,0.5-3,0.5v1.5c-5,1-10.4,2.5-15.4,4l-4.5,1.5c-1.5,0.5-3,1-4.5,1.5v-1.5 c-1,0.5-2,0.5-3.5,1v-36.8C377.6,205.6,378.1,198.2,365.2,198.2z M285.2,190.2l28.8,7.9V222l-4-2c0,0,2-20.9-24.3-25.3v-4.5H285.2z M285.7,264.7v-58.1c0,0,13.9,23.3,62.1,25.3v20.4c-1.5,0.5-3,1-5,1.5v-7.4c0,0,0-2.5-3.5-2.5c0,0-0.5-3-3.5-3c-2,0-3,1.5-3.5,2.5 c-4.5,0-4,3-4,3v11.4l-2.5,0.5v-11.9c0,0,0.5-4-4.5-4.5c0-1.5-1.5-3-3.5-3s-3,1.5-3.5,2.5c-5.5-0.5-5,4-5,4v16.4 c-0.5,0-1.5,0.5-2,0.5v-14.9c0,0,1-6-5-6.5c-0.5-2-2-3.5-4.5-3.5s-4.5,1.5-4.5,3.5c-6,0.5-5.5,6.5-5.5,6.5v17.9 C287.7,264.7,286.7,264.7,285.7,264.7z M457.6,240.4c-18.9-13.4-18.9-38.2-18.9-42.7l-54.6-34.3c-3.5,3-20.4,18.9-32.8,31.3 c0,11.9,0,19.4,0,25.8v3.5c0,1-0.5,1.5-1,1.5c-1,0-1-1-1-1.5c-0.5-7-3.5-30.3-14.9-30.3l0,0c-7.4,0-11.4,14.4-11.9,19.9h-2v-20.4 l-41.7-9.4v35.8c0,0.5,0.5,3-1,5c-1,1-2,1.5-3.5,1.5c-1.5,0-2.5-0.5-3.5-1.5c-2-2-1.5-5-1.5-5.5v-39.2l7.5,1.5v-9.4c0-2.5-2-3-2-3 L244,152c-3.5,2-22.3,12.4-29.8,16.9c-2.5,1.5-2,4.5-2,4.5l0,0v35.3h-1c-9.9,2-14.9,5-14.9,5l-1.5,1v-29.3c-7.9,1-53.6,7-61.6,7.9 c-1.5,0-2,1-2.5,2c-0.5,1.5,0.5,4,2.5,5.5h0.5v0.5c3.5,12.4-2.5,34.3-12.9,46.2c0,0.5-0.5,0.5-1,0.5s-0.5,0-0.5-0.5 c-0.5-0.5-0.5-1,0-1.5c10.9-12.4,15.4-33.3,12.9-43.7c-3-2-3.5-5-3-7.4c0.5-2,2-3.5,4.5-4c8.4-1,62.1-8.4,62.6-8.4h1.5v27.8 c2-1,6.5-3,12.9-4.5v-33.8c0-0.5-0.5-4.5,3-6.5c7.9-5,29.8-16.9,30.3-17.4l0.5-0.5l31.8,17.4c0,0,3,1.5,3,5v9.9l43.2,9.4v13.9 c2-6,6-13.4,11.9-13.4c7.9,0,12.4,8.9,14.9,17.9c0-4,0-8.9,0-14.9v-0.5l0.5-0.5c13.9-13.9,33.8-32.3,33.8-32.3l0.5-0.5l57.1,36.3 v0.5c0,0.5-1,28.3,17.9,41.7c0.5,0.5,0.5,1,0.5,1.5C458.6,240.4,458.1,240.9,457.6,240.4z M276.8,220L276.8,220v-36.3l-5.5-1v36.8 c0,0.5,0,2.5,1,3.5c0.5,0.5,1,0.5,2,0.5c1,0,1.5,0,1.5-0.5C276.8,221.5,276.8,220,276.8,220z M130.8,255.3c1.5,0.5,3,1,5,1.5 c6.5,2,12.4,3.5,17.9,5.5c5.5,1.5,10.4,2.5,15.4,3.5c9.4,1.5,17.9,2.5,23.3,3c3,0,5,0.5,6.5,0.5c0,0,0,0,0.5,0c0,0.5,0,1,0,1.5 l-2.5,17.9c-1.5,0-3.5-0.5-6.5-1c-6-1-14.9-2.5-25.3-5.5c-5-1.5-10.9-3-16.4-5.5c-5.5-2-10.9-4.5-16.9-6.5c-1.5-0.5-3-1-4.5-1.5 c-1.5-0.5-3-1-4.5-1.5c-1-0.5-2.5-1-3.5-1.5c-1.5-0.5-3-1-5-1c-1,0-2,0-2.5,0.5c-0.5,0.5-1,1.5-0.5,2c0.5,1.5,1.5,2.5,2.5,3.5 c1,1,2.5,2.5,4,3.5l0.5,0.5l0.5,0.5l0.5,0.5l2,1.5c1.5,1,2.5,2,4,3c2.5,2,5.5,4,7.9,6c9.9,7.9,19.4,16.4,25.3,24.3 c6.5,8.4,9.9,16.4,11.4,22.4c1,3,1,5.5,1.5,7c0,1.5,0,2.5,0,2.5H171c0,0,0-1-0.5-2.5c-0.5-1.5-1-4-2-6.5c-2-5.5-6-12.9-12.9-20.4 c-7-7.5-15.9-14.4-26.8-21.4c-2.5-1.5-5.5-3.5-7.9-5c-1.5-1-3-1.5-4-2.5l-2-1.5l-1-0.5l-1.5-1c-4-2.5-7.9-5.5-11.4-8.4 c-1.5-1.5-3-3-4-4.5c-1-1.5-2-3-2.5-5c0-1-0.5-2,0-3c0-1,0.5-2,1-3c1-1.5,2.5-2.5,4-3.5c3-1.5,6.5-2,11.4-1.5c1,0,2.5,0.5,3.5,0.5 c1.5,0,2.5,0.5,4,0.5c2.5,0.5,5,1,7.9,2C127.3,254.8,129.3,254.8,130.8,255.3z M181.9,220c1,0.5,2,1,2,2.5v16.4c0,1-0.5,1.5-2,1 l-9.4-3.5c-1.5-0.5-2-1.5-2-2.5v-16.4c0-1,0-2.5,2-2L181.9,220z M153.1,208.1c1,0,2,1,2,2v15.4c0,1-1,2-2,2l-8.9-2.5c-1,0-2-1-2-2 v-13.4c0-1,1-2,2-2L153.1,208.1z M137.2,196.2L137.2,196.2c4-0.5,54.1-6.5,54.1-6.5v22.3c0,0-10.4-16.9-53.6-11.9 C135.7,200.2,134.7,196.7,137.2,196.2z M262.4,193.2l-9.4-0.5c-1,0-1.5-0.5-1.5-1.5v-12.4c0-1,0.5-1.5,1.5-1.5l9.4,1 c1,0,1.5,0.5,1.5,1.5v12.4C263.9,192.7,263.4,193.2,262.4,193.2z M232.1,187.7c1,0,1.5,0.5,1.5,1.5v12.9c0,1-0.5,1.5-1.5,1.5 l-9.4,0.5c-1,0-1.5-0.5-1.5-1.5v-12.4c0-1,0.5-1.5,1.5-1.5L232.1,187.7z M215.7,173.3c0,0,0-1.5,1.5-2.5c3-1.5,26.8-14.9,26.8-14.9 l29.3,15.9l-28.8,1l-28.8,14.9V173.3L215.7,173.3z M227.6,221.5c-0.5-2-2.5-3.5-4.5-3.5c-2.5,0-4.5,2-4.5,4.5c-6,1-5,6.5-5,6.5 v29.8c0,0,0,0-0.5,0c-0.5,0-1,0-1.5,0c-0.5,0-0.5,0-1,0v-31.3c0,0,0-3.5-5.5-2.5c-0.5-2.5-2.5-3.5-5.5-2.5c-2.5,1-3.5,2.5-3,4.5 l0,0c-3,1.5-3.5,3-3.5,3v34.8c-0.5,0-0.5,0-1,0c-0.5,0-1,0-1.5,0v-42.2c43.2-17.9,73-12.9,73-12.9v57.1h-3h-1.5c-1,0-2,0-3,0 c-0.5,0-10.4,0-10.4,0c-2,0-4,0-6,0c-1,0-2,0-3,0s-2,0-2.5,0V228C234.1,227.5,234.6,220.5,227.6,221.5z M199.3,295l3.5-24.3 c0,0,1-8.4,9.4-8.9c1,0,2.5,0,4,0.5c5.5,1.5,6,4.5,6,8.9c1,10.4-44.2,159.9-44.2,159.9s0,1.5-0.5,1.5c-0.5,0-0.5-1.5-0.5-1.5 L199.3,295z M223.1,357.1L223.1,357.1L223.1,357.1L223.1,357.1z M225.6,354.6C225.6,354.6,225.6,354.1,225.6,354.6l0.5-0.5 c-0.5,0.5-1,1.5-2,2.5l-0.5,0.5l1.5-2C225.1,355.1,225.1,355.1,225.6,354.6z M226.1,354.1L226.1,354.1L226.1,354.1L226.1,354.1z M223.6,357.1L223.6,357.1L223.6,357.1L223.6,357.1z M224.1,357.1L224.1,357.1L224.1,357.1L224.1,357.1L224.1,357.1z M225.1,356.6 L225.1,356.6l-0.5,0.5C224.6,356.6,224.6,356.6,225.1,356.6L225.1,356.6z M225.1,356.6h-0.5l0,0H225.1z M224.6,357.1h0.5H224.6 L224.6,357.1L224.6,357.1z M226.1,356.6L226.1,356.6h-0.5H226.1z M226.6,356.6h-1C226.1,356.6,226.6,356.6,226.6,356.6L226.6,356.6 z M226.1,356.6h-0.5h-0.5H226.1L226.1,356.6z M224.1,357.6L224.1,357.6L224.1,357.6L224.1,357.6z M225.1,357.1h-0.5H225.1 L225.1,357.1z M224.6,357.6L224.6,357.6L224.6,357.6L224.6,357.6z M223.6,358.1L223.6,358.1L223.6,358.1L223.6,358.1z M223.6,357.6 L223.6,357.6L223.6,357.6L223.6,357.6L223.6,357.6z M244.5,342.2L244.5,342.2L244.5,342.2L244.5,342.2z M244,342.7v0.5V342.7 C243.5,343.2,243.5,343.2,244,342.7z M244,342.7L244,342.7L244,342.7L244,342.7z M243.5,343.2L243.5,343.2l-0.5,0.5L243.5,343.2z M245,341.7c0.5-0.5,0.5-1,0.5-1l0.5-1c0,0.5,0,0.5,0,0.5l-0.5,1L245,341.7z M261.4,321.8L261.4,321.8c0,0.5-0.5,0.5-0.5,1 l-0.5,0.5l0.5-0.5L261.4,321.8L261.4,321.8z M258.4,324.3L258.4,324.3h-0.5H258.4L258.4,324.3z M252.4,330.8L252.4,330.8l0.5-0.5 L252.4,330.8L252.4,330.8z M258.9,324.3L258.9,324.3L258.9,324.3L258.9,324.3L258.9,324.3c-0.5,0.5-0.5,1-0.5,1l-0.5,0.5l-0.5,0.5 l0,0l0,0h-0.5l0,0l1-1C258.4,324.3,258.9,324.3,258.9,324.3z M257.9,325.8L257.9,325.8c0,0.5-0.5,0.5-0.5,0.5l0,0L257.9,325.8 L257.9,325.8L257.9,325.8z M256.9,326.8L256.9,326.8L256.9,326.8l-0.5,0.5l0,0L256.9,326.8L256.9,326.8L256.9,326.8z M256.9,327.3 l-0.5,0.5L256.9,327.3L256.9,327.3L256.9,327.3z M255.4,328.3L255.4,328.3l1-0.5l-1,1.5h-0.5h0.5l0,0v0.5v0.5v0.5l0,0l-0.5,0.5 l0.5-0.5l-0.5,0.5c-0.5,0.5-0.5,0.5-0.5,0.5h-0.5l-0.5,1v-0.5l0,0h0.5l0,0v-0.5h-0.5c0.5-0.5,1-1,1.5-1.5l0.5-0.5h0.5l0,0 c0,0,0.5-0.5,0.5-1l1-0.5C256.4,327.3,255.9,327.8,255.4,328.3L255.4,328.3z M251.9,332.8L251.9,332.8L251.9,332.8l-0.5,0.5l0,0 l0.5-1h0.5L251.9,332.8L251.9,332.8z M251.4,333.3L251.4,333.3L251.4,333.3L251.4,333.3L251.4,333.3l0.5-0.5l0,0l0,0h0.5v0.5H251.4 c0,0,0,0.5-0.5,0.5l-0.5,0.5l0,0c0,0.5-0.5,0.5-0.5,0.5h0.5H250l0,0v-0.5l0.5-0.5v1.5H250l0,0l0,0l0,0l0,0h-0.5l0,0H249h-0.5 c0.5-0.5,0.5-1,1-1.5h0.5l0,0L251.4,333.3L251.4,333.3L251.4,333.3L251.4,333.3z M249.5,335.7L249.5,335.7L249.5,335.7L249.5,335.7 v0.5l0,0H249h0.5H249h-0.5l0,0H248C248.5,336.7,249,336.7,249.5,335.7L249.5,335.7L249.5,335.7L249.5,335.7z M249.5,336.7 L249.5,336.7L249.5,336.7L249.5,336.7z M250,335.2L250,335.2l-0.5,1v-0.5L250,335.2z M249.5,335.7L249.5,335.7L249.5,335.7 L249.5,335.7z M250,335.2L250,335.2L250,335.2C250,335.7,250,335.7,250,335.2L250,335.2z M249.5,335.7L249.5,335.7L249.5,335.7 L249.5,335.7z M252.4,332.3L252.4,332.3L252.4,332.3L252.4,332.3L252.4,332.3L252.4,332.3z M248.5,337.7H248H248.5l0.5-0.5 C249,337.2,248.5,337.2,248.5,337.7z M247.5,339.2l0.5-0.5l0,0L247.5,339.2z M251.4,333.3L251.4,333.3L251.4,333.3L251.4,333.3z M251.4,332.8L251.4,332.8C251.4,333.3,251.4,332.8,251.4,332.8L251.4,332.8z M251.4,332.3L251.4,332.3L251.4,332.3L251.4,332.3z M252.4,331.8L252.4,331.8L252.4,331.8L252.4,331.8z M256.4,326.8l0.5-1h0.5L256.4,326.8L256.4,326.8z M255.9,326.8h0.5H255.9 L255.9,326.8z M256.9,325.8l0.5-0.5l0,0L256.9,325.8L256.9,325.8L256.9,325.8L256.9,325.8L256.9,325.8z M283.2,301h1H283.2 L283.2,301z M257.9,378L257.9,378L257.9,378L257.9,378z M287.7,324.3L287.7,324.3L287.7,324.3L287.7,324.3z M236.5,357.6v-0.5h0.5 C237,357.1,237,357.6,236.5,357.6z M236.1,359.6C236.1,359.6,236.1,359.1,236.1,359.6L236.1,359.6L236.1,359.6z M235.1,363.1 c-0.5,0.5-0.5,1-0.5,1.5L235.1,363.1c0,0,0-0.5,0.5-1C235.6,362.1,235.6,362.6,235.1,363.1z M226.6,356.6L226.6,356.6 c-0.5,0-1,0-1,0l5.5-6.5h-0.5h0.5h0.5l0,0c-0.5,0-0.5,0-1,0h0.5h0.5h-0.5h0.5l0.5-0.5c1-0.5,2-1,3-1c1,0,2.5-0.5,3.5-0.5h4.5 c0-1,1-2,1.5-2.5l0,0c0.5-0.5,0.5-0.5,1-1c0-0.5,0.5-1,1-1l0,0c0.5-0.5,0.5-0.5,0.5-0.5h0.5l0,0c1-1,2-2,2.5-3.5 c1-1,1.5-2.5,2.5-3.5c0.5-1,1-1.5,2-2.5c0.5-0.5,1-1.5,1.5-2h0.5c0,0,0.5,0,0.5-0.5l0,0c3.5-4.5,7.4-8.4,10.9-11.9 c-0.5,0-0.5,0-0.5,0s0,0.5-0.5,0.5c-0.5,0.5-1,1-1,1l-1.5,1c0.5-0.5,1-1,1-1l-0.5,0.5l-0.5,0.5v-0.5l0,0l-0.5,0.5v-0.5v-0.5h0.5 l0,0c0-0.5,0.5-0.5,0.5-1l2-1.5h-0.5h0.5h0.5v-0.5l1.5-1h0.5c0.5-0.5,0.5-0.5,0.5-1c0-0.5,0.5-0.5,1-0.5h0.5c0-0.5,0.5-0.5,0.5-1 l0,0v-0.5h0.5h0.5l0,0l1-0.5h-0.5l0.5-0.5l1.5-1h0.5l1-1h-0.5c0,0,0,0,0.5,0l0.5-0.5v-0.5h-0.5v-0.5h0.5h0.5l1-0.5l1-1l0,0 c0-0.5,0.5-0.5,0.5-0.5c0-0.5,0.5-0.5,0.5-0.5l0.5-0.5c0,0,0.5-0.5,1-0.5s0.5-0.5,1-0.5h0.5l1-0.5l0,0h0.5l1-0.5l0.5-0.5v-0.5l0,0 l1-0.5h-0.5l0.5-0.5h1h0.5c0,0,0.5,0,1-0.5l0,0h0.5h0.5h-0.5h0.5l0,0l0.5-0.5h0.5l1.5-0.5h-0.5c0,0,0.5,0,0.5-0.5 c0.5,0,0.5,0,0.5-0.5l0,0h0.5l0.5-0.5h0.5l0,0h0.5h0.5h0.5c2-1,4-2,7-2.5c2.5-0.5,5.5-0.5,8.4,0c3,0.5,5,1.5,5.5,3.5c1,2,1,3,1.5,4 c0,2-0.5,4.5-1.5,7.9c-1,3.5-2,6.5-3.5,8.9c-1,1-1.5,2-2.5,3c-1,1-1.5,2-3,2h-0.5l0,0l-1.5,1h-0.5h0.5h-0.5h-0.5h-0.5l0,0h-0.5 h-0.5h0.5h-0.5h-0.5h0.5h-0.5h-1l0,0h-1l0,0h-0.5h-0.5h-0.5h0.5h-0.5h-0.5h-4c-0.5,0-1,0-1,0h-0.5l0,0h-0.5h0.5h-0.5h-0.5l0,0h-0.5 h-0.5h-0.5l0,0h-0.5h-0.5h-0.5h-0.5h-0.5h0.5c0,0,0.5,0,0-0.5h0.5l0,0l0.5,0.5h0.5h0.5h-0.5c0,0,0.5,0,1,0h-0.5c0,0,0.5,0,1,0h-0.5 h0.5c0.5,0,0.5,0,1,0h0.5h-0.5h0.5h0.5h1.5h0.5h-2h0.5h0.5h0.5h-0.5h3.5l0,0h-0.5h0.5c0.5,0,1,0,1.5,0c0.5,0,0.5,0,1,0h0.5h0.5 h-0.5h0.5h0.5h0.5h-0.5h0.5h0.5h-0.5h-0.5h0.5c0.5,0,0.5,0,0.5-0.5c0,0,0.5,0,0.5-0.5l0,0h-0.5h-0.5l1-0.5c-3,0.5-5.5,0.5-7.5,0 c-2.5,0-4.5-0.5-6.5-1c0.5-0.5,0.5-0.5,1-1c0-0.5,0.5-0.5,0.5-1c1-1,2-2.5,3-5c1-2,2-4.5,2.5-7c-0.5,0.5-0.5,0.5-1,1 c0,0.5-0.5,0.5-1,1l0,0v0.5l-0.5,0.5v0.5v0.5c0,0.5-0.5,0.5-0.5,1c0,0.5-0.5,0.5-0.5,1v0.5h0.5v0.5h0.5l-0.5,0.5l0,0v0.5 c-0.5,0.5-0.5,0.5-0.5,1l-0.5,1h-0.5l-1.5,3h0.5l-2.5-1v0.5h-0.5l0,0h-0.5h-0.5h-1l1-1c0-0.5,0.5-0.5,0.5-1l1-0.5 c0-0.5,0.5-1,0.5-1l0.5-1v0.5v0.5v-0.5v-0.5l0.5-1h-0.5c0-0.5,0.5-0.5,0.5-0.5s0,0,0.5-0.5l0,0c0-0.5,0.5-1,0.5-1v-0.5v-0.5v-0.5 h0.5h0.5v0.5l0,0v-0.5v-0.5c0,0.5-0.5,0.5-0.5,0.5l0,0v0.5c0-0.5,0-0.5,0.5-1v-0.5v-0.5l0,0v-0.5v-0.5c-0.5,0-0.5,0.5-0.5,0.5 l-0.5,0.5h-0.5l0,0l-5,4c-1.5,1.5-3.5,3-5.5,4.5c-0.5,0.5-0.5,0.5-1,1c-0.5,0.5-1,1-2,1.5l0,0l-1,0.5c-2.5,2.5-5,5.5-7.9,9.4 c-3,3.5-6.5,7.5-9.4,11.9h5c1,0.5,2.5,0.5,3.5,1c1,0.5,2,1,2.5,1.5c2,1.5,4,3,5,4c1,1.5,1.5,3,1.5,4.5c-1-0.5-2-0.5-2-0.5l0,0h-0.5 c0,0.5,0.5,0.5,0,0.5v1v0.5h0.5l0,0l0,0h-0.5v0.5l0,0l0,0l0,0h-0.5h-0.5h-0.5h-0.5h0.5c-0.5,0-1,0-1-0.5c-0.5,0-0.5,0-0.5,0h0.5 c-0.5,0-1,0-1,0h-0.5h-1h-1h-0.5h-0.5h-0.5h0.5h1c-0.5,0-1,0-1,0h-0.5h-0.5h-0.5h0.5h-0.5h-0.5h-0.5c-0.5,0-0.5,0-1,0h-1h0.5h-0.5 c0,0,0,0-1,0l0,0h-0.5h-1h-1l0,0h-0.5l0,0h-1l0,0h-0.5c-0.5,0-1,0-1,0h-0.5v-1c1,0,1.5,0,2,0h1.5c0,0,0.5,0,1,0h1.5 c1,0,1.5,0,1.5,0c0.5,0,1,0,1.5,0c0.5,0,1,0,1.5,0s1,0,1.5,0c0.5,0,0.5,0,1,0s0.5,0,1,0.5c0.5,0,1,0,2.5,0.5h0.5h0.5v0.5h1v-0.5 l0,0c0,0,0,0-0.5,0h0.5l-0.5-1.5c-2.5-0.5-5-0.5-8.4-1c-3-0.5-6.5-0.5-9.4-1h-1.5l0,0c0,0.5,0,0.5-0.5,1h0.5h-0.5h0.5l0.5,0.5l0,0 h-0.5h0.5h-0.5h-0.5h-1c0,0.5,0,0.5,0,0.5v0.5c-0.5,0.5-0.5,0.5-0.5,1h-0.5l0,0c-0.5,1.5-1.5,3-2,4c-0.5,1.5-1,2.5-2,4 c-0.5,0.5-0.5,1-0.5,1c0,0.5,0,0.5-0.5,1c0,0.5-0.5,0.5-0.5,1s-0.5,0.5-0.5,1c0,0.5,0,0.5,0,0.5s0,0,0,0.5s0,0.5,0,0.5v0.5 c0,0.5,0,0.5,0,1s0,1,0,1c0,1,0,1.5-0.5,2.5c0,1,0,1,0,1.5s0,1,0.5,1c0.5,0.5,0.5,1,1,1.5c0.5,0.5,0.5,1,0.5,1l0,0h0.5l0.5-0.5l0,0 l1-0.5l0,0h0.5l0,0h0.5h0.5l0,0h0.5c0,0,0.5-0.5,1-0.5c0.5,0,0.5-0.5,1-0.5h0.5c0,0,0.5-0.5,1-0.5h0.5h0.5h0.5h0.5h1h0.5 c0.5,0,1-0.5,1.5-1l0.5-0.5l1-0.5h0.5l1.5-1c0.5-0.5,1-0.5,1-0.5h0.5c0.5-0.5,1-0.5,1.5-1c1-0.5,2-1,3-1l0,0h0.5h0.5l1-1h0.5l0,0 V372l1-0.5h0.5c0,0,0.5,0,1,0h0.5h0.5h-0.5h0.5l1-1h-0.5l1-0.5c0,0,0.5,0,1,0h0.5c0,0-0.5,0-1,0h0.5c0.5,0,1-0.5,1.5-0.5l0,0l1-0.5 h0.5h0.5h-0.5h0.5h0.5h0.5l0,0c0,0,0,0,0.5,0h0.5h-0.5l-6-1h0.5l0,0c0.5,0,1-0.5,1.5-0.5h0.5l1.5-1h-0.5h0.5h-0.5h-0.5 c-0.5,0.5-1,0.5-1.5,0.5c0.5-0.5,0.5-0.5,1-0.5l1.5-1h-0.5h0.5h0.5h0.5h0.5l1-0.5h0.5h0.5c0.5-0.5,1-0.5,1-0.5h-0.5h-0.5l1-1h0.5 h0.5h-0.5l0,0h-0.5h0.5h0.5h-0.5h0.5l0.5-0.5c0.5,0,0.5-0.5,1-0.5l0,0l0,0h-0.5h0.5h0.5h0.5c1-0.5,1.5-1,2-1l0.5-0.5 c1,0.5,2,1.5,3,3c1,1.5,1.5,2.5,1,3c-0.5,0-1,1-2.5,2h-0.5l-1,0.5l0,0l0,0l-1,0.5h-0.5h0.5h-1h-0.5v0.5h-0.5h-0.5h-0.5h0.5 l-0.5,0.5l0,0c-0.5,0.5-1.5,1-2,1l-2.5,2h0.5c-0.5,0.5-0.5,0.5-1,0.5l0,0h-0.5c-0.5,0.5-1,0.5-2,1c-0.5,0.5-0.5,1-1.5,1l-1,0.5 c-0.5,0.5-1,0.5-1.5,1l-1.5,1c-0.5,0.5-1,0.5-1.5,0.5h-0.5c-0.5,0.5-1,0.5-1.5,1c-0.5,0.5-1,1-1.5,1c-1,0.5-1.5,1-2,1 c-0.5,0.5-1.5,1-2.5,1.5l0,0c-0.5,0.5-0.5,0.5-1,0.5l-1.5,1h2c0,0-0.5,0.5-1,0.5l0,0h-0.5c-0.5,0.5-1,0.5-1.5,1c-0.5,0.5-1,0.5-2,1 h0.5c-0.5,0.5-0.5,0.5-0.5,0.5c-0.5,0-0.5,0-1,0c0,0-0.5,0.5-1,0.5c0,0.5-0.5,0.5-0.5,0.5c-0.5,0-0.5,0.5-0.5,0.5 c0,0.5-0.5,0.5-1,0.5c-1.5,0.5-2.5,1-2.5,1.5c-0.5,0-0.5,0.5-0.5,0.5l-0.5,0.5h-0.5h-0.5h-0.5l-1,0.5l0,0l0,0l0,0l0,0h0.5h0.5H251 c-1,0-3.5-1.5-7-4.5c0,0,0-0.5-0.5-0.5c0,0-0.5,0-0.5-0.5c0,0-0.5,0-0.5-0.5v-0.5H242l0,0c-1.5-1-2.5-2-4.5-3.5 c-1.5-1.5-2.5-2.5-3-3.5c0,0-0.5-0.5-0.5-1h1.5v-1.5c0-0.5-0.5-0.5-0.5-1c0-0.5,0-1-0.5-1c0-3,0.5-6,1.5-9.9c1-3.5,2-7,3-10.4v-0.5 l1.5-3H240c-4.5,0.5-7.9,1-9.4,1.5h-0.5h-0.5h-0.5h-0.5h-0.5l0,0l0,0L226.6,356.6L226.6,356.6z M264.9,317.4L264.9,317.4 L264.9,317.4L264.9,317.4L264.9,317.4z M266.8,316.9l-1,0.5l-1,0.5C265.4,317.9,265.9,317.4,266.8,316.9z M265.9,316.9h0.5l0.5-0.5 L265.9,316.9z M304.6,324.3c0,0-0.5,0-1,0h-0.5h0.5h0.5H304.6L304.6,324.3L304.6,324.3L304.6,324.3z M294.2,312.4 c0-0.5,0-0.5,0-0.5V312.4L294.2,312.4z M289.7,322.3L289.7,322.3L289.7,322.3L289.7,322.3z M294.2,313.4L294.2,313.4L294.2,313.4 L294.2,313.4L294.2,313.4L294.2,313.4L294.2,313.4z M278.8,305L278.8,305C278.8,305,278.3,305.4,278.8,305 C278.8,305.4,278.8,305,278.8,305z M277.8,306.9L277.8,306.9l-1,0.5l-0.5,0.5L277.8,306.9z M269.8,314.4L269.8,314.4 c0.5-0.5,1-0.5,1-1l0,0l0.5-0.5v0.5c0.5-0.5,1-1,1-1.5h0.5l0,0h-0.5L269.8,314.4L269.8,314.4c-0.5,0-0.5,0.5-0.5,0.5l0,0l-0.5,0.5 h0.5v0.5C269.3,314.4,269.3,314.4,269.8,314.4z M267.8,315.9c0.5-0.5,0.5-0.5,1-1l0,0l0,0l-0.5,0.5 C267.8,315.4,267.8,315.4,267.8,315.9h-1h0.5H267.8l0.5-0.5C268.3,315.4,268.3,315.4,267.8,315.9z M287.7,362.1L287.7,362.1 L287.7,362.1L287.7,362.1L287.7,362.1z M287.2,362.6h-0.5h-0.5l0,0H287.2L287.2,362.6L287.2,362.6L287.2,362.6z M283.2,364.6 L283.2,364.6c0.5-0.5,0.5-0.5,1-0.5h0.5h-0.5L283.2,364.6z M283.2,364.6L283.2,364.6L283.2,364.6L283.2,364.6L283.2,364.6 L283.2,364.6z M279.3,367L279.3,367L279.3,367L279.3,367z M277.8,367.5L277.8,367.5L277.8,367.5L277.8,367.5z M254.4,379.9 L254.4,379.9l1-0.5h-0.5C254.9,379.9,254.9,379.9,254.4,379.9z M252.9,381.4L252.9,381.4L252.9,381.4L252.9,381.4z M252.4,381.4 c0,0-0.5,0.5-1,0.5c-0.5,0-0.5,0.5-0.5,0.5h-0.5h0.5h-0.5l0,0l1-0.5l0.5-0.5H252.4c0.5-0.5,1-1,1.5-1l-0.5,0.5h0.5l-1,0.5h0.5h-0.5 l0,0H252.4L252.4,381.4z M251.9,381.4L251.9,381.4L251.9,381.4L251.9,381.4L251.9,381.4z M250,381.9h0.5H250L250,381.9z M249,382.9 L249,382.9L249,382.9l-0.5,0.5L249,382.9h-0.5c0.5-0.5,0.5-0.5,1-0.5h0.5h0.5C249.5,382.4,249.5,382.4,249,382.9L249,382.9z M261.9,357.1L261.9,357.1L261.9,357.1L261.9,357.1L261.9,357.1z M301.1,324.3L301.1,324.3h1.5 C302.6,324.3,302.1,324.3,301.1,324.3L301.1,324.3z M294.7,313.4v-0.5V313.4L294.7,313.4z M293.2,317.9L293.2,317.9l-0.5,0.5 C293.2,318.4,293.2,317.9,293.2,317.9L293.2,317.9z M292.2,319.4c0.5-0.5,0.5-1,0.5-1L292.2,319.4L292.2,319.4z M301.1,325.3 c-0.5,0-0.5,0-1,0h-1c0,0,0.5,0,1,0H301.1z M274.8,307.9l-0.5,0.5l0,0L274.8,307.9L274.8,307.9L274.8,307.9L274.8,307.9z M263.9,319.4L263.9,319.4L263.9,319.4L263.9,319.4L263.9,319.4L263.9,319.4L263.9,319.4v0.5c0,0.5-0.5,0.5-0.5,0.5h-0.5l0,0 l0.5-0.5h-0.5h-0.5l0.5-0.5l-1,0.5v0.5h-0.5l0,0h-0.5h-0.5h0.5l-1,1h0.5v1.5v-0.5h-0.5v0.5v-0.5l0.5-0.5c0.5-0.5,0.5-0.5,1-1v-0.5 v-0.5h0.5h0.5c0.5-0.5,0.5-0.5,0.5-1l0,0L263.9,319.4L263.9,319.4L263.9,319.4z M262.4,320.8L262.4,320.8L262.4,320.8L262.4,320.8 L262.4,320.8L262.4,320.8l-0.5,0.5L262.4,320.8c-0.5,0.5-0.5,0.5-0.5,1L262.4,320.8L262.4,320.8L262.4,320.8z M229.6,350.6 L229.6,350.6l-0.5,0.5l-1,0.5c0,0.5-0.5,0.5-0.5,0.5s0,0.5-0.5,0.5v0.5v0.5h-0.5l0,0l-1,0.5l0.5-1c0-0.5,0.5-0.5,0.5-1l0.5-0.5 c0,0,0.5-0.5,0.5-1l2-2h0.5v0.5C230.1,350.1,230.1,350.6,229.6,350.6z M225.6,355.6L225.6,355.6L225.6,355.6l0.5-1l0,0 C226.1,355.1,225.6,355.6,225.6,355.6z M225.6,356.6C225.6,356.6,225.6,355.6,225.6,356.6l0.5-0.5 C225.6,355.6,225.6,356.6,225.6,356.6z M225.1,355.6L225.1,355.6L225.1,355.6L225.1,355.6z M230.1,349.7L230.1,349.7h1 C230.6,349.2,230.6,349.2,230.1,349.7L230.1,349.7z M259.9,323.3L259.9,323.3C259.9,322.8,260.4,322.8,259.9,323.3 C260.4,322.8,260.4,322.8,259.9,323.3z M259.9,323.3L259.9,323.3L259.9,323.3L259.9,323.3L259.9,323.3z M259.4,323.3L259.4,323.3 L259.4,323.3L259.4,323.3z M258.4,324.3L258.4,324.3l1.5-1.5v0.5L258.4,324.3z M260.9,321.8l1-1 C261.4,321.8,260.9,321.8,260.9,321.8z M271.8,310.4L271.8,310.4L271.8,310.4L271.8,310.4z M272.8,309.4L272.8,309.4l-0.5,0.5 C272.8,309.9,272.8,309.4,272.8,309.4z M273.8,309.4L273.8,309.4c-0.5,0.5-1,0.5-1,0.5L273.8,309.4L273.8,309.4z M282.2,302.5 L282.2,302.5C282.2,302,282.2,302.5,282.2,302.5z M286.7,299.5h0.5H286.7L286.7,299.5z M286.7,299.5l0.5-0.5h0.5 C287.7,299.5,287.7,299.5,286.7,299.5L286.7,299.5z M306.1,324.3L306.1,324.3L306.1,324.3L306.1,324.3z M292.7,316.9L292.7,316.9 L292.7,316.9L292.7,316.9z M293.7,314.4L293.7,314.4C293.7,314.4,293.2,314.4,293.7,314.4z M276.3,359.1L276.3,359.1L276.3,359.1 L276.3,359.1z M276.3,359.1L276.3,359.1h-0.5H276.3L276.3,359.1z M274.3,359.1L274.3,359.1L274.3,359.1L274.3,359.1z M261.4,357.6 L261.4,357.6C261.4,357.1,261.4,357.1,261.4,357.6L261.4,357.6z M260.9,357.6c-0.5,0-1,0-1,0H260.9L260.9,357.6z M253.9,380.4 L253.9,380.4L253.9,380.4L253.9,380.4z M255.9,379.5L255.9,379.5h-0.5H255.9z M256.4,379.5L256.4,379.5h-0.5H256.4z M258.4,378h0.5 H258.4L258.4,378z M259.4,377.5L259.4,377.5L259.4,377.5L259.4,377.5z M272.3,370.5l-0.5,0.5h-0.5 C271.8,370.5,272.3,370.5,272.3,370.5z M272.3,370L272.3,370L272.3,370L272.3,370z M278.3,367L278.3,367l-0.5,0.5L278.3,367z M279.3,366.5L279.3,366.5L279.3,366.5L279.3,366.5z M279.8,366.5L279.8,366.5L279.8,366.5L279.8,366.5z M283.2,364.1h0.5H283.2 L283.2,364.1z M284.7,364.1L284.7,364.1h-0.5H284.7z M285.2,364.1l1-0.5L285.2,364.1L285.2,364.1z M284.7,364.1L284.7,364.1 L284.7,364.1L284.7,364.1z M287.2,362.1L287.2,362.1L287.2,362.1L287.2,362.1z M291.7,369C291.7,369,291.2,369,291.7,369L291.7,369 L291.7,369L291.7,369z M292.7,368c-0.5,0.5-0.5,0.5-1,0.5h0.5L292.7,368z M288.2,371.5c0.5-0.5,0.5-0.5,1-0.5L288.2,371.5 L288.2,371.5z M286.7,372c0.5-0.5,1-0.5,1.5-1l-1,0.5C287.2,372,286.7,372,286.7,372z M279.3,377.5l0.5-0.5h0.5 C279.8,377,279.3,377.5,279.3,377.5z M252.9,394.4L252.9,394.4h-0.5H252.9L252.9,394.4z M251.4,395.3L251.4,395.3 c0-0.5,0.5-0.5,1-1L251.4,395.3z M251.4,394.8L251.4,394.8l0.5-0.5l0,0L251.4,394.8L251.4,394.8z M229.1,355.6L229.1,355.6 L229.1,355.6L229.1,355.6z M232.6,370.5c0,0.5,0,0.5,0,0.5V370.5L232.6,370.5z M232.6,371.5L232.6,371.5L232.6,371.5L232.6,371.5z M232.6,381.4l-0.5-0.5L232.6,381.4L232.6,381.4z M233.1,369.5L233.1,369.5c0-0.5,0-0.5,0-0.5V369.5z M233.6,365.5 c0,0.5-0.5,0.5-0.5,0.5c0-0.5,0.5-1,0.5-1C234.1,365,234.1,365.5,233.6,365.5z M233.6,382.9L233.6,382.9L233.6,382.9L233.6,382.9z M235.6,385.4l-0.5-0.5L235.6,385.4L235.6,385.4z M236.1,385.4L236.1,385.4L236.1,385.4L236.1,385.4z M238.5,387.9l-0.5-0.5 c-0.5-0.5-0.5-0.5-0.5-0.5l0.5,0.5L238.5,387.9z M243.5,392.4L243.5,392.4L243.5,392.4L243.5,392.4z M245.5,393.9l-1-0.5l0,0 L245.5,393.9L245.5,393.9z M247,394.4L247,394.4L247,394.4L247,394.4z M246,393.9l1,0.5l0,0L246,393.9z M247.5,394.8 c-1-0.5-1.5-1-2-1c0.5,0.5,1,0.5,1,0.5L247.5,394.8z M248,394.8L248,394.8C248.5,394.8,248,394.8,248,394.8l-1-0.5 C247.5,394.8,247.5,394.8,248,394.8z M250,395.3L250,395.3L250,395.3h-0.5H249h-0.5l0,0h0.5C249.5,395.3,249.5,395.3,250,395.3z M250.5,395.3L250.5,395.3c0,0,0,0,0.5,0H250.5z M250.5,396.3L250.5,396.3L250.5,396.3L250.5,396.3L250.5,396.3z M306.1,324.3 l-0.5,0.5h-0.5L306.1,324.3L306.1,324.3z M323,367.5L323,367.5h0.5H323z M378.6,351.6L378.6,351.6L378.6,351.6L378.6,351.6z M370.6,351.6h-0.5H370.6L370.6,351.6z M352.3,355.6h-0.5C352.3,355.6,352.3,355.6,352.3,355.6L352.3,355.6z M341.8,359.1 L341.8,359.1h0.5H341.8z M390,316.9L390,316.9L390,316.9L390,316.9z M389,316.9L389,316.9c0-0.5,0.5-1,0.5-1L389,316.9z M381.6,315.4L381.6,315.4L381.6,315.4L381.6,315.4z M384.1,314.4h-0.5H384.1L384.1,314.4z M387.5,332.3c0-0.5-0.5-0.5-0.5-1 c0-0.5-0.5-0.5,0-1c0,0.5,0.5,1,1,1L387.5,332.3L387.5,332.3L387.5,332.3z M386.5,329.8L386.5,329.8 C386.5,330.3,386.5,329.8,386.5,329.8L386.5,329.8z M387,325.3L387,325.3L387,325.3L387,325.3z M386,329.3L386,329.3L386,329.3 L386,329.3z M386.5,326.8L386.5,326.8L386.5,326.8L386.5,326.8z M387,326.8v0.5h-0.5C386.5,327.3,387,327.3,387,326.8z M387,328.3 L387,328.3L387,328.3L387,328.3z M387,327.8L387,327.8L387,327.8C386.5,328.3,386.5,328.3,387,327.8z M386.5,325.3v0.5H386v0.5 v-0.5L386.5,325.3L386.5,325.3z M387,324.8L387,324.8v-0.5l0,0V324.8L387,324.8L387,324.8L387,324.8z M387,325.3L387,325.3 L387,325.3L387,325.3v0.5v0.5h0.5v0.5H387C386.5,326.8,387,325.8,387,325.3L387,325.3L387,325.3L387,325.3z M320.5,367.5 L320.5,367.5h1h0.5v1.5v0.5c0,0,0,0.5,0.5,0.5v1c0,0.5,0,0.5,0.5,0.5c0,0,0,0.5,0.5,1v0.5c0,0.5,0,1,0.5,1l0.5,3.5 c0,0.5,0.5,1,1,1.5c0,0.5,0.5,1,0.5,1.5v1h0.5c0,0,0,0.5,0.5,0.5h-0.5H326h0.5l-1.5,1.5c0-0.5,0-0.5-0.5-0.5h0.5v-0.5 c0-0.5-0.5-1-0.5-2l-0.5-1l0.5,0.5l0,0H324v-0.5h-0.5L323,378h0.5l0.5,1v-1.5h-0.5v-1c0-0.5-0.5-0.5-0.5-1l0.5,0.5v-0.5H323v-1h0.5 L323,374c-0.5-0.5-0.5-1-0.5-1c0-0.5,0-0.5-0.5-0.5h0.5l0,0c0.5,0.5,0.5,1,0.5,1.5v-1c0,0,0-0.5-0.5-0.5L322,372v-1.5 c0,0,0-0.5-0.5-0.5l-0.5-1l0,0c0-0.5,0-0.5,0-1L320.5,367.5C320.5,367.5,320,367.5,320.5,367.5l-0.5-1h0.5 C320.5,367,320.5,367,320.5,367.5z M322,367L322,367L322,367l0.5,0.5h0.5h0.5v-1c-0.5-0.5-0.5-1-0.5-1.5c0,0,0-0.5-0.5-0.5 c1,0,3,1,6,2.5c0.5,0.5,1.5,1,2,1c0.5,0.5,1.5,1,2,1.5l1,1c0.5,0.5,0.5,0.5,0.5,1c0.5,1,1,2.5,1.5,4.5v0.5c0,0,0.5,0.5,0.5,1 c0.5,0.5,0.5,1.5,1,3c0.5,1,1,2.5,2,4h1h0.5c1-0.5,1.5-0.5,2-1h1h0.5h0.5h0.5l0,0h0.5h-0.5l1-0.5v-0.5h0.5h0.5c0.5,0,0.5-0.5,1-0.5 l-0.5,0.5v-0.5c0,0,0.5-0.5,1-0.5h0.5c0,0,0.5-0.5,1-0.5l0.5-0.5h-0.5c0.5-0.5,1-0.5,1-0.5l0.5-0.5l0.5-0.5h-0.5h0.5c0,0,0.5,0,1,0 h-0.5h0.5h-0.5l1-0.5h-0.5h0.5h0.5h0.5h-0.5l0.5-0.5l0,0c0.5-0.5,0.5-1,1-1h0.5h0.5l1.5-1l0,0l0.5-0.5h0.5l0.5-0.5h-0.5l1-0.5v-2 l-1,0.5l1-0.5c0.5,0,1-0.5,1.5-0.5h0.5h-0.5l1.5-1l0.5-1v0.5v0.5h0.5l0,0l0.5-1l0.5-1l0,0l0.5-0.5l0,0h0.5V368l0,0l1-0.5 c0-0.5,0.5-0.5,0.5-0.5c0.5,0,0.5-0.5,1-0.5l1.5-1v0.5c0,0,0.5,0,0.5-0.5V365l0,0h0.5h-0.5h-0.5c1-1,1.5-2,2-2.5l0.5-0.5 c0.5-0.5,0.5-0.5,0.5-1l0,0h0.5c0.5-0.5,0.5-0.5,0.5-1l0,0v-0.5h0.5h-0.5h0.5c0,0,0.5,0,1,0l0,0c0.5-0.5,0.5-1,1-1.5h0.5l0,0 c-0.5,0.5-0.5,0.5-0.5,1h-0.5v0.5v0.5h-0.5h-0.5c-0.5,0.5-0.5,0.5-0.5,1s-0.5,0.5-0.5,0.5c0,0.5,0,0.5-0.5,0.5s-0.5,0.5-0.5,0.5 c-0.5,0-0.5,0.5-1,0.5l0,0v0.5l0,0l0,0l0,0l0,0l-0.5-1l-0.5,0.5l0.5-0.5l1.5-1.5l2.5-2.5l0,0l0.5-0.5l1-1v-0.5c0-0.5,0-0.5,0-1 v-0.5l0,0h0.5v-0.5h-0.5v-0.5l0,0v-0.5v0.5v-0.5h-0.5v-0.5h0.5v-0.5l0.5-0.5l0,0c0-0.5,0-0.5,0-0.5h2.5l0,0h-0.5h0.5h-0.5h0.5h-0.5 l0,0h-0.5v-0.5h1c0.5,0,1,0,1,0.5l0,0h-0.5h-0.5l0,0h-0.5c0,0.5,0,1,0,1s0,0.5-0.5,1.5v1l1.5-2.5c0.5-0.5,0.5-1,1-1.5 c0.5-0.5,0.5-1,1-1.5c0-0.5,0-0.5,0-0.5h-2.5c-0.5,0-1,0-1.5,0h-1c-0.5,0-0.5,0-1,0h-0.5c-1.5,0.5-3,0.5-4.5,0.5 c-1.5,0-2.5,0.5-3.5,0.5l-2,0.5h3h1h0.5h0.5h1h1.5h0.5h0.5c0.5,0,1,0,1.5,0h2v0.5v0.5h-0.5h-0.5h-5h-1l0,0h-0.5c-0.5,0-1,0-1,0h0.5 h-0.5h0.5c-0.5,0-0.5,0-1,0h0.5c-0.5,0-1,0-1,0c0.5-0.5,0.5-0.5-0.5,0h-0.5c0,0-0.5,0-1,0h-0.5h-0.5h-0.5l0,0h-0.5l-1,0.5h-0.5 h-0.5c-0.5,0-0.5,0-1,0s-1,0-1,0c0.5-0.5,0.5-0.5,0.5-1s0-0.5,0.5-1c0,0,0.5,0,1,0h0.5l0,0h0.5h0.5h-0.5c0.5,0,1-0.5,1.5-0.5 c-1,0-2,0-3,0.5h-0.5h-0.5h-0.5l0,0h-0.5c-1,0.5-3,1-4.5,1.5c-1,0.5-2,1-3,1h0.5h1c0.5,0,1-0.5,1-0.5c0.5,0,1-0.5,1.5-0.5 s0.5,0,1-0.5c0.5,0,0.5,0,1-0.5c0.5,0,1,0,1.5-0.5v0.5h-0.5c0,0,0,0.5-0.5,0.5h-0.5l0,0h-0.5l-1.5,0.5h-0.5c-0.5,0-1.5,0.5-2.5,0.5 h-0.5c-0.5,0-0.5,0-1,0l0,0h-0.5h-0.5h-0.5h-0.5h-0.5l0.5,5h-0.5h-0.5h-1h-0.5l-1,1h-0.5h-0.5l0,0h-0.5h-0.5l0,0h-1h-1 c0,0-0.5,0-1,0.5c0,0-0.5,0-1,0h-0.5h0.5h-0.5h-0.5h-0.5h-1.5h-0.5h-0.5h0.5l0,0h0.5h-0.5h-1h-0.5h-0.5l1-0.5h0.5l0,0h2.5 c1,0,1.5,0,2.5,0h1h0.5h0.5h0.5h1h0.5h0.5h0.5c0,0,0.5,0,1,0s0.5,0,1,0h0.5l0,0h0.5c0.5,0,0.5,0,1,0h-0.5c0.5,0,1.5-0.5,1.5-0.5 h0.5h0.5c-1,0.5-2,0.5-3,0.5c-2,0.5-3.5,1-5,1.5c-1.5,0.5-2.5,0-4.5-0.5c-0.5,0-0.5,0-0.5-0.5l-1.5-1l0,0h-0.5l0,0l-0.5-0.5h-0.5 c-0.5-0.5-1-1-1.5-1.5c-0.5-0.5-1-1-1.5-1.5v-0.5c-0.5-1-0.5-1.5-0.5-2c0.5-0.5,0.5-1.5,1-2.5c0.5-1,1-2.5,2-4c0-0.5,0-0.5,0-0.5 v-0.5h0.5c0.5-0.5,1-1.5,1.5-2.5c0.5-0.5,1-1.5,1-2v-0.5c0.5-1.5,1.5-2.5,2.5-4c0.5-1,1-1.5,2-2.5h-0.5h0.5h0.5c0.5-0.5,0.5-1,1-1 h0.5c0.5-0.5,1-1.5,1.5-2c0.5-0.5,0.5-1,1-1.5l0,0h-0.5c0,0,0-0.5,0.5-0.5l1-0.5v-0.5l0.5-0.5l0,0h0.5l0,0h0.5h-0.5l-0.5,0.5v0.5 l-0.5,0.5v-0.5h-0.5c0,0.5-0.5,0.5-0.5,1v0.5l0,0h-0.5h-0.5l0,0h-0.5h-0.5v0.5v0.5c-1-1.5-1.5-1.5-1.5-1.5h-0.5 c0.5-0.5,0.5-0.5,0.5-1h0.5h-0.5l0.5-0.5v-0.5l1-1h0.5l0.5-0.5h-0.5c0,0,0,0,0.5,0l0,0h0.5l0,0h0.5h0.5c0.5-0.5,1-0.5,1.5-1 c1-1,1.5-2,2-2.5s1-1,1.5-1.5l0,0c0-0.5,0.5-0.5,0.5-0.5v-0.5l0,0l0,0h0.5l0,0h0.5l0.5-0.5c0-0.5,0.5-0.5,0.5-0.5h-0.5 c0,0,0.5-0.5,1-0.5c0.5-0.5,0.5-0.5,1-0.5c0,0,0.5,0,0.5-0.5l0.5-0.5l0.5-0.5c0.5-0.5,1-1,1.5-1l0.5-0.5h0.5l0.5-0.5l0,0v-0.5 c0.5-0.5,0.5-0.5,1-0.5c0.5-0.5,0.5-0.5,1.5-1c0.5-0.5,0.5-0.5,1-0.5l-0.5,0.5c0.5,0,0.5-0.5,1-0.5l0.5-0.5c0.5-0.5,1-0.5,1-0.5 l1-0.5v0.5l1.5-1h0.5l0.5-0.5v-0.5l1-0.5h0.5h0.5l0.5-0.5l0,0h0.5l0,0l0,0l1.5-1c0,0.5-0.5,0.5-0.5,1c0.5,0,1-0.5,0.5-1 c0.5,0,0.5,0,0.5,0h0.5l0,0h0.5h-0.5c0.5-0.5,1-0.5,1.5-1c0,0,0.5,0,1-0.5c1.5-0.5,2.5-1.5,4-2c1-0.5,2.5-1.5,3.5-2l4-1 c1.5-0.5,2.5-1,3.5-1h0.5l0,0h1l0,0h0.5c1-0.5,1.5-0.5,2.5-0.5c0.5,0,1.5,0,2-0.5c1.5-0.5,3-1,4.5-1c1.5,0,2.5,0,3.5,0 c1.5,0,2.5,0,4.5,0c0.5,0,0.5,0,1,0c0.5,0,0.5,0,1,0c2,0,4,0.5,5.5,0.5c1.5,0,3,0.5,4.5,1.5c-2,1.5-4,4-6.5,7c-2.5,3-5,6.5-7.5,9.4 c-2.5,3.5-4,6.5-5.5,9.9c-1.5,3-2,6-1.5,7.9c-1.5,0.5-2.5,1-3.5,1c-1,0.5-2,0.5-2.5,0.5c-1,0-1,0-1.5,0l-2-1h-0.5l0,0H393 c0-0.5-0.5-0.5-0.5-1c-0.5-0.5-0.5-1-0.5-1c0-0.5,0-1,0-1c-0.5-0.5-0.5-1,0-2l-2.5-5c1-2,1.5-4,2-6c0-2,0.5-4.5,1-7.5 c-0.5,0.5-0.5,0.5-1,0.5c-0.5,0-0.5,0-1,0.5H390l0,0h0.5c0,0,0,0.5,0.5,0.5h-0.5c0-0.5,0-0.5-0.5-0.5h-0.5H389l0,0h-0.5h1 c0,0-0.5,0.5-1,0.5l1.5-0.5l0,0c0,0-1,0.5-2,1c-0.5,0-1,0.5-2,0.5h-0.5c0,0,0.5,0,1-0.5h0.5l0,0h-0.5H386h0.5H386h-0.5l-1,2 c-0.5,0-0.5,0.5-1,0.5c0,0-0.5,0.5-1,0.5l-1,0.5l-1,0.5l-0.5,0.5l-0.5,0.5h0.5h-0.5l0,0h-0.5l0,0h0.5h-0.5h0.5l0,0l0,0h0.5h-1h-0.5 h0.5h-0.5h-0.5l0.5-0.5l-1,2c-0.5,0.5-1,0.5-1.5,1c0,0.5-0.5,0.5-1,0.5c-0.5,0-0.5,0.5-1,0.5h-0.5h1h-0.5c-0.5,0.5-0.5,0.5-1,0.5 l-0.5,0.5v0.5h-0.5c0,0-0.5,0.5-1,0.5h0.5h-0.5h-0.5v0.5h-0.5h-0.5h-0.5l0,0h-0.5l0,0h-0.5h-0.5l0,0h-1v0.5v-0.5h0.5h-0.5v0.5 c0,0-0.5,0.5-1,0.5h-0.5h-0.5l0.5-0.5h-0.5l0,0c-0.5,0.5-1,0.5-1,1h-0.5l1.5,3.5v0.5h-1l-0.5,0.5c-0.5,0.5-1,0.5-1.5,1 c0,0,0,0.5-0.5,0.5h-0.5c-1,0.5-1.5,1-2,1l0,0l-1,1c0,0.5-0.5,0.5-0.5,0.5h-0.5c0,0.5-0.5,0.5-0.5,0.5h-0.5v0.5 c-1,0.5-1.5,1.5-2,2.5c-0.5,1-1.5,1.5-2,2h-0.5l0,0h-0.5l-0.5,1h-0.5c-0.5,0.5-1,0.5-1.5,1.5c-0.5,0.5-1.5,1.5-2,2 c-0.5,1-1.5,1.5-2,2c-0.5,0.5-1,1-1,1.5c2-0.5,4-1.5,7-3c3-1,5.5-2,7.5-2.5h0.5c0,0,1-0.5,2-0.5h0.5h0.5h0.5c2-0.5,3.5-0.5,5.5-1 c2-0.5,4-0.5,6.5-0.5h1.5c1.5-0.5,3-0.5,5.5,0h1.5c2,0.5,3.5,0.5,5,1c0,0,0.5,0.5,1.5,0.5c0.5,0,1,0,1,0.5c0.5,0,0.5,0,1,0.5 l0.5,0.5c0,0,0.5,0,0.5,0.5c0,0,0.5,0,0.5,0.5h0.5h0.5h0.5l0.5,0.5h0.5c1,0.5,1,0.5,1,0.5v0.5h0.5c0,0.5,0.5,0.5,0.5,1h0.5v0.5 c1,1,1,2.5,1,3s0,1,0,1v1c0,1-0.5,2.5-0.5,3c0,1-0.5,1.5-1,2.5c-1.5,1.5-2.5,3-3.5,4c-1,1.5-2,2.5-3.5,4c-1.5,1.5-2.5,3-4,4.5 c-1.5,1.5-3,2.5-4,4l-2.5,2c-0.5,0.5-1,1-2,1.5c0,0.5-0.5,0.5-0.5,0.5s-0.5,0-1,0.5h-0.5h-0.5v1.5l0,0l-0.5,0.5h-0.5l-1,1l0,0h-0.5 l0,0l-0.5,0.5h0.5c-0.5,0.5-0.5,0.5-1,0.5l-1,0.5c0,0-0.5,0-1,0.5h-0.5l0,0l0,0l-0.5,0.5l0,0v-0.5l0,0l0,0l1-0.5h-0.5 c-0.5,0.5-0.5,0.5-0.5,1h-0.5h-0.5l-1.5,1c-0.5,0.5-1.5,1-2,1h-0.5l0,0h1.5l-1,0.5l-1,0.5c-0.5,0-0.5,0.5-1,0.5h-0.5l-0.5,0.5v0.5 h-0.5l-0.5,0.5l0,0h-0.5c-0.5,0-0.5,0.5-0.5,0.5h-0.5h-0.5l0,0h0.5h-0.5l-0.5,0.5h-0.5h-0.5h0.5h-0.5h-0.5h-0.5l0,0h0.5v0.5h-1l0,0 h-0.5h-0.5l0,0c0,0-0.5,0-0.5,0.5c-0.5,0-0.5,0-0.5,0l-1,0.5h-0.5h-0.5h-1l0,0h-0.5l1.5,3c-0.5,0.5-1,0.5-1.5,0.5s-1,0.5-1.5,0.5 h-0.5h-0.5h-0.5h-0.5h-0.5l0,0l0,0h-0.5h-0.5h-0.5h-0.5h-0.5h-0.5h0.5h0.5h1.5h-0.5c-0.5,0-0.5,0-1,0h-0.5h-1h-0.5 c-0.5,0-0.5,0-0.5,0h-1h-0.5h-1.5c-0.5,0-0.5,0-1,0s-0.5,0-1,0h-0.5h0.5c-0.5,0-1,0-1,0c-0.5,0-0.5,0-1,0h1h-1h-0.5l0,0h-0.5h-0.5 h-0.5h-0.5h-0.5c-0.5,0-1-0.5-1-0.5l1-0.5h0.5h-0.5h0.5h0.5h0.5h0.5h0.5h0.5h0.5h0.5h0.5h0.5h1h0.5h2.5c0.5,0,1,0,1.5,0h1.5h1 c0.5,0,0.5,0,1,0h0.5h0.5l1.5-0.5h-0.5c0.5,0,0.5,0,1,0h0.5h0.5l0.5-0.5h0.5l0,0l1.5-0.5h0.5l0,0h0.5l0,0h-0.5 c-0.5,0-0.5,0.5-1,0.5l0,0h-0.5h-0.5l0,0c-0.5,0.5-1.5,0.5-2,0.5c-1,0-2,0.5-3,0.5h-4c-1,0-2-0.5-4-1c-0.5,0-1,0-1,0h-0.5l0,0h-0.5 l0,0h-0.5c-0.5-0.5-1-1-1.5-1c-1-0.5-1.5-1-1.5-1.5c-1.5-1-1.5-1.5-2-2h-0.5c0-0.5-0.5-1.5-0.5-2c-0.5-0.5-0.5-1.5-0.5-2v-1h-0.5 c-0.5-2-1-4-1.5-5.5c-0.5-2-1-3.5-1.5-5v-1c0-0.5-0.5-1-0.5-1.5h-0.5H323h-0.5l0,0H322l0,0h-0.5H321v-1h1V367z M353.8,354.6 c0,0,0.5,0,1,0h0.5h-0.5H353.8L353.8,354.6L353.8,354.6z M336.9,358.1L336.9,358.1L336.9,358.1L336.9,358.1z M376.6,317.9 L376.6,317.9h-0.5c0,0.5-0.5,0.5-0.5,0.5L376.6,317.9z M374.1,319.9L374.1,319.9h-0.5H374.1z M372.1,321.8L372.1,321.8L372.1,321.8 L372.1,321.8c0-0.5,0,0-0.5,0H372.1z M360.7,312.4L360.7,312.4L360.7,312.4L360.7,312.4z M355.3,316.9L355.3,316.9l0.5-0.5l0,0 c0.5-0.5,1-0.5,1-1c0.5-0.5,1-0.5,1-1c0.5-0.5,1.5-1,2-1h0.5h-0.5c-0.5,0-0.5,0.5-1,0.5l-1,0.5l0,0l-0.5,0.5l-0.5,0.5 c-0.5,0.5-0.5,0.5-1,0.5l-1.5,1H355.3L355.3,316.9z M351.3,321.8L351.3,321.8C351.3,321.8,350.8,321.8,351.3,321.8 C350.8,321.8,351.3,321.8,351.3,321.8z M351.3,321.8c0-0.5,0.5-0.5,0.5-1h-0.5c-0.5,0.5-0.5,0.5-1,1c0,0-0.5,0-1,0.5l1-0.5H351.3z M349.8,322.8c0,0,0,0-0.5,0C349.8,322.8,349.8,322.8,349.8,322.8z M347.3,324.8L347.3,324.8C347.8,324.8,347.3,324.8,347.3,324.8 L347.3,324.8z M371.6,379.9L371.6,379.9L371.6,379.9z M370.2,364.6L370.2,364.6L370.2,364.6L370.2,364.6z M355.7,375.5h-0.5h-0.5 H355.7z M352.3,390.4L352.3,390.4L352.3,390.4L352.3,390.4z M354.3,376.5L354.3,376.5l-0.5,0.5L354.3,376.5L354.3,376.5z M353.3,391.4l1-0.5L353.3,391.4L353.3,391.4L353.3,391.4L353.3,391.4z M352.3,391.4L352.3,391.4l1-0.5 C352.8,391.4,352.8,391.4,352.3,391.4l0.5-0.5C352.8,391.4,352.3,391.4,352.3,391.4L352.3,391.4 C351.8,391.4,351.8,391.4,352.3,391.4z M351.3,391.4h0.5h0.5l0,0h-0.5l0,0H351.3L351.3,391.4z M349.3,392.4L349.3,392.4h0.5H349.3z M349.3,379.9L349.3,379.9L349.3,379.9L349.3,379.9z M355.7,316.9L355.7,316.9c-0.5,0.5-0.5,0.5-0.5,0.5h-0.5L355.7,316.9z M332.9,393.9L332.9,393.9L332.9,393.9L332.9,393.9z M346.3,393.9L346.3,393.9L346.3,393.9C345.8,393.9,345.8,393.9,346.3,393.9 L346.3,393.9z M348.8,323.3L348.8,323.3L348.8,323.3L348.8,323.3z M342.3,330.8h0.5H342.3L342.3,330.8z M341.3,331.8 c0,0.5,0,0.5-0.5,1l0,0l-0.5,0.5h-0.5l0,0h-0.5l0.5,1.5l-0.5,0.5l0,0h0.5l0,0l0,0l0,0h-0.5l0,0v-0.5l0,0c0.5-0.5,0.5-0.5,0.5-1v-1 l-0.5,0.5l-0.5,0.5h0.5v0.5l-0.5,0.5c0,0.5,0,0.5,0,0.5h0.5v-0.5l0,0l1-0.5c0,0.5-0.5,1-0.5,1h-0.5v0.5h-0.5v0.5l0,0l0,0v1l-1,0.5 l0,0l0,0l0,0c0,0.5-0.5,0.5-0.5,1c-0.5,0.5-0.5,0.5-0.5,1c-0.5,0.5-0.5,1-1,1.5c0,0.5,0,0.5-0.5,0.5c-0.5,0-0.5,0.5-1,0.5h-0.5 v-0.5v0.5v-0.5l0,0v-0.5l0,0v-0.5l0,0h0.5l0.5-0.5c0.5-0.5,0.5-0.5,0-0.5l0,0v-0.5l0,0l0.5-0.5c0,0.5,0,0.5,0,0.5l0.5-0.5v-0.5h0.5 h-0.5h0.5h0.5h0.5c0.5-0.5,0.5-0.5,1-1h-0.5l0,0v-0.5c0-0.5,0.5-0.5,0.5-1h-0.5h-0.5v-0.5v-0.5h0.5l0,0c0-0.5,0.5-1,0.5-1l1.5-1 l0,0l0.5-0.5C340.8,331.8,341.3,331.8,341.3,331.8L341.3,331.8v-0.5V331.8L341.3,331.8L341.3,331.8L341.3,331.8L341.3,331.8v-0.5 h0.5L341.3,331.8z M335.9,337.7L335.9,337.7l-0.5,0.5v0.5h0.5l0,0V337.7L335.9,337.7z M335.9,340.2L335.9,340.2L335.9,340.2 L335.9,340.2z M336.9,339.2c-0.5,0.5-0.5,1-0.5,1v-0.5C336.9,339.2,336.9,339.2,336.9,339.2L336.9,339.2z M337.9,337.2l-0.5,0.5 L337.9,337.2L337.9,337.2z M340.8,332.3L340.8,332.3L340.8,332.3L340.8,332.3z M337.4,337.2l0.5-0.5 C337.9,336.7,337.9,336.7,337.4,337.2L337.4,337.2z M338.4,336.7L338.4,336.7L338.4,336.7L338.4,336.7L338.4,336.7L338.4,336.7z M338.9,335.2L338.9,335.2v0.5V335.2L338.9,335.2z M338.4,336.7L338.4,336.7L338.4,336.7L338.4,336.7z M339.4,334.3L339.4,334.3 L339.4,334.3L339.4,334.3z M340.4,359.1L340.4,359.1L340.4,359.1L340.4,359.1z M344.3,358.1h1h0.5l0,0c-1,0-2,0.5-3,0.5h0.5h0.5 h-0.5L344.3,358.1L344.3,358.1L344.3,358.1z M362.2,351.6h0.5H362.2L362.2,351.6z M367.2,351.6L367.2,351.6L367.2,351.6 c0,0-0.5,0-1,0H367.2L367.2,351.6z M370.2,351.6L370.2,351.6L370.2,351.6L370.2,351.6h-0.5h-0.5H370.2L370.2,351.6z M370.2,351.6 L370.2,351.6L370.2,351.6L370.2,351.6L370.2,351.6z M364.2,368l-0.5,0.5h-0.5L364.2,368l0.5-1v0.5L364.2,368L364.2,368L364.2,368z M362.7,369.5L362.7,369.5l0.5-0.5h0.5L362.7,369.5z M363.7,369L363.7,369L363.7,369L363.7,369z M352.8,378L352.8,378L352.8,378 L352.8,378z M351.3,379L351.3,379l-1,0.5h-0.5l0.5-0.5h-0.5h0.5H351.3C350.8,379,351.3,379,351.3,379L351.3,379L351.3,379z M320.5,366.5h0.5h0.5l0,0l0.5,0.5h-0.5l-0.5-0.5C321,366.5,321,366.5,320.5,366.5z M340.8,383.9l-0.5,0.5h-0.5L340.8,383.9z M345.8,381.9L345.8,381.9L345.8,381.9L345.8,381.9z M346.3,381.4h0.5C346.3,381.4,346.3,381.9,346.3,381.4L346.3,381.4z M346.3,381.4L346.3,381.4L346.3,381.4L346.3,381.4z M351.3,379L351.3,379L351.3,379L351.3,379z M353.8,377l-0.5,0.5 C353.8,377,353.8,377,353.8,377z M360.7,371.5L360.7,371.5L360.7,371.5L360.7,371.5z M360.2,372L360.2,372h0.5H360.2L360.2,372z M365.7,366.5L365.7,366.5L365.7,366.5L365.7,366.5z M373.1,359.1l-1,0.5C372.6,359.1,373.1,359.1,373.1,359.1L373.1,359.1z M379.1,350.6L379.1,350.6L379.1,350.6L379.1,350.6z M371.1,351.6h0.5H371.1L371.1,351.6z M369.2,351.6L369.2,351.6h1H369.2z M365.7,352.1L365.7,352.1L365.7,352.1L365.7,352.1z M340.4,359.1L340.4,359.1L340.4,359.1L340.4,359.1z M340.4,359.1L340.4,359.1 L340.4,359.1L340.4,359.1z M337.9,359.1L337.9,359.1l-0.5-0.5L337.9,359.1L337.9,359.1z M337.9,359.1L337.9,359.1L337.9,359.1 L337.9,359.1z M336.9,359.1L336.9,359.1L336.9,359.1L336.9,359.1z M333.9,341.7L333.9,341.7C333.9,341.7,333.4,341.7,333.9,341.7 L333.9,341.7z M336.4,337.2L336.4,337.2c0-0.5,0.5-0.5,0.5-0.5l0,0l0,0l0,0l0,0v-0.5v0.5h0.5c0,0.5-0.5,0.5-0.5,0.5H336.4z M336.9,337.2L336.9,337.2l0.5-1v0.5c0-0.5,0.5-1,0.5-1L336.9,337.2L336.9,337.2L336.9,337.2z M337.4,335.7L337.4,335.7 L337.4,335.7L337.4,335.7v-0.5V335.7L337.4,335.7z M338.9,334.3L338.9,334.3L338.9,334.3L338.9,334.3z M338.9,333.3L338.9,333.3 L338.9,333.3L338.9,333.3z M341.3,331.8C341.3,330.8,341.3,330.8,341.3,331.8c0.5-0.5,1-0.5,1-0.5h-0.5L341.3,331.8L341.3,331.8z M343.3,328.3l0.5-0.5l1-0.5l0,0L343.3,328.3z M346.3,324.3L346.3,324.3C346.8,324.3,346.3,324.8,346.3,324.3L346.3,324.3z M352.8,318.4L352.8,318.4L352.8,318.4c0.5-0.5,0.5-1,0.5-1v0.5L352.8,318.4z M359.2,312.9l1-0.5h-0.5L359.2,312.9z M360.2,311.9 L360.2,311.9l-0.5,0.5L360.2,311.9z M370.6,305L370.6,305L370.6,305L370.6,305z M371.1,305L371.1,305L371.1,305L371.1,305 L371.1,305z M390.5,311.9v0.5c0,0.5,0,1-0.5,1.5l0,0c0,0.5,0,1,0,1v0.5v0.5h-0.5l0,0l0,0l0,0l0,0v-0.5v0.5c0,0-0.5,0.5-0.5,1 c0,0,0,0,0,0.5l0,0c0-0.5,0-0.5,0-0.5l0,0v0.5v0.5v-0.5v-0.5c0-0.5,0.5-0.5,0.5-1l0.5-1v-0.5l0,0v-0.5v-0.5v-1l0,0h0.5V311.9 l-0.5,0.5L390.5,311.9L390.5,311.9L390.5,311.9z M390,314.9L390,314.9L390,314.9l-0.5,0.5C389.5,315.4,389.5,314.9,390,314.9 L390,314.9L390,314.9z M389.5,315.4L389.5,315.4L389.5,315.4L389.5,315.4z M389,318.4L389,318.4L389,318.4L389,318.4L389,318.4z M388.5,318.4L388.5,318.4L388.5,318.4L388.5,318.4z M388.5,319.4L388.5,319.4L388.5,319.4L388.5,319.4L388.5,319.4L388.5,319.4 L388.5,319.4z M388.5,319.4L388.5,319.4L388.5,319.4L388.5,319.4z M388.5,318.4L388.5,318.4v0.5V318.4L388.5,318.4L388.5,318.4z M389,319.4c0,0.5,0,1-0.5,1.5v-0.5v-0.5L389,319.4L389,319.4L389,319.4z M388.5,319.9L388.5,319.9L388.5,319.9L388.5,319.9z M388.5,320.3v-0.5V320.3c0,0.5,0,1,0,1l0,0l-0.5,1.5l0,0v0.5l0,0v-0.5l0,0v0.5l0.5-1v-0.5v-0.5v0.5v-1H388L388.5,320.3 C388,320.8,388,320.3,388.5,320.3L388.5,320.3v-1l0,0h0.5l0,0C388.5,319.9,388.5,319.9,388.5,320.3L388.5,320.3z M388,323.3 L388,323.3L388,323.3L388,323.3z M387.5,324.3L387.5,324.3L387.5,324.3L387.5,324.3z M389,315.4L389,315.4L389,315.4L389,315.4z M390,313.4v0.5l-0.5,0.5C389.5,314.4,390,314.4,390,313.4z M390,311.9L390,311.9L390,311.9L390,311.9L390,311.9L390,311.9 L390,311.9z M390,312.9c0,0,0,0.5-0.5,0.5l0.5-1l0,0v-0.5h0.5v0.5C390,312.4,390,312.9,390,312.9z M389.5,311.9L389.5,311.9 L389.5,311.9L389.5,311.9z M381.6,315.9h-0.5H381.6L381.6,315.9z M381.1,316.9L381.1,316.9L381.1,316.9L381.1,316.9z M371.1,322.8 L371.1,322.8L371.1,322.8L371.1,322.8L371.1,322.8z M370.6,322.8c0,0,0.5-0.5,1-0.5h-0.5L370.6,322.8z M366.7,325.3l-1,0.5 L366.7,325.3l0.5-0.5C366.7,325.3,366.7,325.3,366.7,325.3z M361.2,329.8L361.2,329.8l-0.5,0.5L361.2,329.8L361.2,329.8 L361.2,329.8z M375.1,378h-0.5H375.1L375.1,378z M372.6,379.5L372.6,379.5L372.6,379.5L372.6,379.5z M350.8,391.9L350.8,391.9 L350.8,391.9C351.3,391.9,351.3,391.9,350.8,391.9z M347.3,393.9L347.3,393.9L347.3,393.9L347.3,393.9z M347.3,393.9L347.3,393.9 L347.3,393.9L347.3,393.9z M333.9,394.4L333.9,394.4L333.9,394.4L333.9,394.4z M333.4,394.4L333.4,394.4 C333.4,393.9,333.4,394.4,333.4,394.4L333.4,394.4z M332.9,393.9L332.9,393.9L332.9,393.9L332.9,393.9z M332.4,393.9L332.4,393.9 L332.4,393.9L332.4,393.9z M331.9,393.9L331.9,393.9L331.9,393.9L331.9,393.9z M346.8,392.9L346.8,392.9L346.8,392.9z M323,369 c-0.5,0-1-0.5-0.5-0.5H322L323,369L323,369L323,369z M325,379.5v1V379.5l-0.5-1L325,379.5z M324.5,381.9L324.5,381.9l0.5,0.5 L324.5,381.9z M326.4,383.9c0.5,0.5,0.5,1,0.5,1.5c0,0,0,0.5,0.5,1.5c0.5,1,0.5,1.5,0.5,1.5v1h0.5c0,0.5,0,0.5,0.5,0.5l0,0 l-0.5-0.5l0,0c0,0,0,0.5,0.5,0.5l0,0h0.5l0,0h-0.5l0.5,0.5h0.5h0.5c0,0-0.5,0-1,0l-0.5-0.5h-0.5v-0.5l-0.5-0.5l0,0l0.5,0.5v-0.5 h-0.5l0,0h-0.5l0,0h-0.5l0,0c0,0,0-0.5-0.5-0.5v-1l-0.5-0.5c-0.5-0.5-0.5-1,0-0.5l0.5,0.5v-0.5h-0.5v-1c0-0.5-0.5-0.5-0.5-1 s0-0.5-0.5-0.5h0.5L326.4,383.9z M327.9,390.4L327.9,390.4l-0.5-0.5C327.9,389.9,327.9,390.4,327.9,390.4L327.9,390.4z M326.9,389.4v-0.5V389.4L326.9,389.4z M361.2,387.4c-0.5,0-0.5,0.5-1,0.5L361.2,387.4C361.7,386.9,361.2,386.9,361.2,387.4z M414.9,374l-0.5,1C414.4,374.5,414.4,374,414.9,374L414.9,374z M414.9,379.9L414.9,379.9L414.9,379.9L414.9,379.9L414.9,379.9z M414.9,376.5c0,0.5,0,1,0,1C414.9,377,414.9,377,414.9,376.5z M414.9,372.5V372h0.5C414.9,371.5,414.9,372,414.9,372.5 L414.9,372.5L414.9,372.5z M415.3,374L415.3,374c-0.5,0,0,0,0-0.5V374z M415.8,382.9L415.8,382.9L415.8,382.9L415.8,382.9z M416.3,369L416.3,369L416.3,369L416.3,369L416.3,369z M417.3,364.1L417.3,364.1c0-0.5,0-0.5,0.5-1l0,0v0.5L417.3,364.1z M417.8,364.1L417.8,364.1L417.8,364.1L417.8,364.1z M417.3,362.6l-0.5,2.5L417.3,362.6L417.3,362.6L417.3,362.6z M417.3,362.1 l0.5-0.5l0,0v-0.5l0,0C417.8,361.6,417.8,361.6,417.3,362.1L417.3,362.1z M418.8,359.1c0,0,0-0.5,0.5-0.5L418.8,359.1L418.8,359.1z M418.8,359.1L418.8,359.1c0,0.5,0,0.5,0,0.5C418.3,359.1,418.3,359.1,418.8,359.1z M418.8,357.6v-0.5V357.6l0.5-0.5L418.8,357.6 L418.8,357.6z M419.3,356.6L419.3,356.6l0.5-0.5L419.3,356.6L419.3,356.6L419.3,356.6z M419.8,355.1c0,0.5,0,0.5,0,0.5V355.1 L419.8,355.1z M420.3,354.6L420.3,354.6C419.8,354.6,419.8,354.6,420.3,354.6L420.3,354.6z M420.3,355.1l-0.5,1 C419.8,356.6,419.8,355.6,420.3,355.1L420.3,355.1z M420.8,353.1L420.8,353.1L420.8,353.1v0.5V353.1z M334.4,339.7L334.4,339.7 L334.4,339.7L334.4,339.7L334.4,339.7z M333.9,356.6c0,0.5,0.5,0.5,1.5,1h0.5l0.5,0.5c-0.5,0-0.5,0-1,0h-0.5l0,0h-0.5h-0.5 c0-0.5-0.5-0.5-1-1L333.9,356.6L333.9,356.6z M329.9,350.6L329.9,350.6L329.9,350.6L329.9,350.6v-0.5l0,0h0.5l0,0h0.5v-0.5l0.5-1 h-0.5v-0.5l0,0v-0.5l0,0v-0.5c0-0.5,0-1,0-1l1.5-1v-0.5l0,0c0.5,0,1-0.5,2-0.5l0,0h-0.5v0.5v0.5l-1,0.5c0,0-0.5,0.5-0.5,1 c0,0,0,0.5-0.5,1.5l-0.5,1l0,0l0,0v0.5v0.5l0,0v0.5c0,0.5,0,0.5,0,0.5v0.5c-0.5,0-0.5,0.5,0,1v1c0,0,0.5,0.5,0.5,1c0,0,0.5,0.5,1,1 h-0.5h-0.5h-0.5l0,0l-0.5-0.5h0.5l0,0h0.5l0,0h-0.5l-0.5-0.5c0,0-0.5,0-0.5-0.5h-0.5l0,0h0.5l0,0h-0.5l0,0c0-0.5-0.5-0.5-0.5-1l0,0 c0-0.5,0-0.5-0.5-0.5v-0.5L329.9,350.6L329.9,350.6l0.5,0.5l0,0c0.5,0,0.5,0,0-0.5H329.9z M331.4,348.2L331.4,348.2L331.4,348.2 L331.4,348.2z M329.4,350.6L329.4,350.6L329.4,350.6L329.4,350.6z M329.4,350.6L329.4,350.6L329.4,350.6L329.4,350.6z M330.4,349.2 L330.4,349.2l-0.5,0.5l0,0C329.9,349.2,329.9,349.2,330.4,349.2v-0.5V349.2L330.4,349.2z M332.4,343.2L332.4,343.2L332.4,343.2 C332.4,344.2,332.4,343.2,332.4,343.2z M331.4,349.2L331.4,349.2L331.4,349.2L331.4,349.2L331.4,349.2z M443.2,321.8 c0,0,0-0.5,0.5-0.5h0.5L443.2,321.8z M430.7,339.2L430.7,339.2L430.7,339.2L430.7,339.2L430.7,339.2z M428.8,340.2L428.8,340.2 L428.8,340.2L428.8,340.2z M429.8,340.2L429.8,340.2L429.8,340.2L429.8,340.2z M426.3,345.2L426.3,345.2l0.5-1h-0.5v-0.5v-0.5 l0.5-0.5v0v-0.5l0,0h0.5l0,0l1-0.5l-1,1.5l0,0v0.5l-0.5,0.5c0-0.5,0-0.5,0-0.5l0,0h0.5l0,0v0.5c-0.5,0.5-0.5,0.5-0.5,0.5v0.5H426.3 z M426.3,344.7L426.3,344.7L426.3,344.7L426.3,344.7z M428.3,342.2L428.3,342.2L428.3,342.2L428.3,342.2z M429.3,341.7L429.3,341.7 C428.8,341.7,428.8,341.7,429.3,341.7L429.3,341.7z M422.8,350.6C422.8,351.6,422.8,351.6,422.8,350.6L422.8,350.6 C423.3,350.1,423.3,350.6,422.8,350.6z M422.8,350.1l0.5-0.5l0.5-1v-0.5h0.5l0,0l0,0l0.5-1l0,0h-0.5v0.5l0,0l0,0l0,0 c0.5-0.5,0.5-0.5,0.5-0.5h0.5l0,0h0.5h-0.5l0.5-0.5h0.5h0.5h-0.5h0.5h0.5l0,0c0,0,0-0.5,0.5-0.5l0,0l-0.5,0.5l-1,0.5l0,0l-2,1.5 l-0.5,1l0,0L422.8,350.1c0,0.5,0,0.5,0,0.5V350.1z M425.3,345.7L425.3,345.7L425.3,345.7L425.3,345.7z M413.9,282.6h-5.5 c0,0-0.5-18.4-11.4-18.4c-12.4,0-11.4,18.4-11.4,18.4h-5.5c0,0,0.5-11.4-9.9-11.4c-10.4,0-9.9,11.4-9.9,11.4h-4.5c0,0,0-8.9-29.8-2 c0,0,26.8-7.5,55.1-17.9c23.3-8.9,33.3-13.4,50.7-13.9c24.3-0.5,45.7,16.4,50.7,31.8c0,0-6.5,1.5-11.9,4c-1-5-3-16.9-13.4-16.9 s-11.4,14.9-11.4,14.9h-5c0,0,1-25.8-12.9-25.8C413.4,257.3,413.9,282.6,413.9,282.6z M421.8,352.1L421.8,352.1L421.8,352.1 L421.8,352.1z M422.3,351.6l-0.5,0.5l0,0L422.3,351.6z M422.3,352.6L422.3,352.6L422.3,352.6L422.3,352.6z M421.8,353.1l0.5-1l0,0 C422.3,353.1,421.8,354.1,421.8,353.1z M421.8,353.1L421.8,353.1c-0.5,0,0-0.5,0-0.5V353.1C421.8,352.6,421.8,353.1,421.8,353.1z M422.3,350.1v1l0,0C422.3,350.6,422.3,350.6,422.3,350.1z M421.8,351.6L421.8,351.6L421.8,351.6 C422.3,351.6,422.3,351.6,421.8,351.6z M421.8,354.1L421.8,354.1L421.8,354.1L421.8,354.1L421.8,354.1z M421.8,354.1L421.8,354.1 L421.8,354.1L421.8,354.1z M419.8,358.1L419.8,358.1L419.8,358.1L419.8,358.1L419.8,358.1z M419.8,357.1L419.8,357.1l0.5-1v-0.5 h0.5v-0.5h0.5v0.5h-0.5v0.5v0.5h-0.5L419.8,357.1C420.3,357.1,419.8,357.1,419.8,357.1L419.8,357.1L419.8,357.1L419.8,357.1z M420.3,356.6L420.3,356.6L420.3,356.6L420.3,356.6z M417.8,362.6L417.8,362.6v-0.5V362.6L417.8,362.6z M418.3,361.6v-0.5V361.6 v-0.5v-0.5h0.5l0,0h0.5v0.5h0.5l0,0L418.3,361.6L418.3,361.6v1h-0.5l0,0L418.3,361.6z M417.8,361.6L417.8,361.6L417.8,361.6 L417.8,361.6z M418.3,360.6L418.3,360.6L418.3,360.6L418.3,360.6z M416.3,369c0-0.5,0-0.5,0-0.5V369L416.3,369z M416.8,366.5V366 l0,0c0,0,0,0,0.5-0.5v0.5h-0.5C417.3,365.5,417.3,365.5,416.8,366.5L416.8,366.5v1l0,0l0,0v0.5v-0.5V366.5z M417.8,385.4l-0.5-0.5 L417.8,385.4L417.8,385.4z M418.3,386.4l1,1C418.3,386.4,418.3,386.4,418.3,386.4z M419.8,387.9v-0.5V387.9L419.8,387.9z M421.8,389.4l1.5,1C422.8,390.4,422.3,389.9,421.8,389.4z M430.7,396.3L430.7,396.3c-0.5-0.5,0-0.5,0.5,0H430.7z"
                  fill="currentColor"/>
        </g>
        <g id="04">
            <path d="M297.6,0c138.1,0,290.5,152.5,290.5,290.5S435.7,581.1,297.6,581.1S7.1,428.6,7.1,290.5S159.6,0,297.6,0z"/>
            <path d="M297.6,5c63.6,0,135.6,34.3,193.7,91.9c57.6,57.6,91.9,130.1,91.9,193.7S549,426.1,491.3,484.2 c-57.6,57.6-130.1,91.9-193.7,91.9S162,541.8,103.9,484.2C46.3,426.1,12,354.1,12,290.5S46.3,155,103.9,96.9 C162,39.2,234.1,5,297.6,5 M297.6,0C159.6,0,7.1,152.5,7.1,290.5S159.6,581,297.6,581s290.5-152.5,290.5-290.5S435.7,0,297.6,0 L297.6,0z"
                  fill="#dfdfdf"/>
            <path d="M243,161.4l54.6-59.1l54.6,59.1h-54.6H243z M281.7,229v8.4v68h31.8v-68V229v-28.8h140.6l-21.4,37.3h-84.4 v30.3h67L381,327.4h-33.3v21.9h20.4l-20.4,36.3l-7.9,13.9l-9.4,16.9H313v-16.9v-49.7v-16.4h-31.8v16.4V400v16.9h-17.4l-9.4-16.9 l-7.9-13.9l-20.4-36.3h20.4v-21.9h-33.3l-34.3-59.6h67V238h-84.4l-20.4-37.7h140.6L281.7,229L281.7,229z M321,438.6L309.6,459 l-11.4,20.4L286.8,459l-11.4-20.4h23.3H321z"
                  fill="currentColor"/>
        </g>
        <g id="05">
            <path d="M297.6,0c138.1,0,290.5,152.5,290.5,290.5S435.7,581.1,297.6,581.1S7.1,428.6,7.1,290.5S159.6,0,297.6,0z"/>
            <path d="M297.6,5c63.6,0,135.6,34.3,193.7,91.9c57.6,57.6,91.9,130.1,91.9,193.7S549,426.1,491.3,484.2 c-57.6,57.6-130.1,91.9-193.7,91.9S162,541.8,103.9,484.2C46.3,426.1,12,354.1,12,290.5S46.3,155,103.9,96.9 C162,39.2,234.1,5,297.6,5 M297.6,0C159.6,0,7.1,152.5,7.1,290.5S159.6,581,297.6,581s290.5-152.5,290.5-290.5S435.7,0,297.6,0 L297.6,0z"
                  fill="#dfdfdf"/>
            <path d="M499.3,257.8c-1,2.5-2,5.5-3.5,7.9c-1.5,2.5-3.5,5-5.5,7.5c-2,2-4.5,4.5-7.4,6c-2.5,1.5-5.5,3-8.4,4 c-6,2-11.9,3-17.4,2.5c-5.5-0.5-10.9-2-15.4-4c-2.5-1-4.5-2.5-6-3.5c-2-1.5-3.5-2.5-5-4c-1-0.5-1.5-1.5-2-2 c36.3-2.5,48.2-15.4,48.2-15.4c-6.5,6-32.8,8.9-48.7,10.4c0.5-0.5,1-1.5,1.5-2.5c1-1.5,2-3,3-5c1-1.5,2.5-3.5,4-5.5 c3-3.5,6.5-7,9.9-9.4c3.5-3,7.4-5,10.9-6.5c2-0.5,3.5-1.5,5.5-1.5c2-0.5,3.5-0.5,6-0.5c2,0,4,0,6,0c2,0,4,0.5,6,0.5s4,0.5,6,0.5 s4,0,5.5,0c1.5,0,3,0,4,0h1.5c0,0,0.5,0.5,0.5,1.5c0.5,1,1,2.5,1,4c0.5,1.5,1,4,0.5,6.5C500.8,252.3,500.3,255.3,499.3,257.8z M481.9,192.7c-1.5,4-3.5,7.4-6,11.4c-2.5,3.5-5.5,7-8.4,9.4s-7,5.5-10.4,7.4c-7.5,4-15.4,6.5-22.8,7.4c-7.9,1-15.4-0.5-21.9-2.5 c-3.5-1-6.5-2-9.4-3.5c-2.5-1.5-5.5-3-7.5-4c-1-0.5-2-1.5-3-2c48.7-10.9,62.6-31.3,62.6-31.3c-7.5,9.4-42.7,19.4-64.1,24.8 c0.5-1,1-2.5,1.5-3.5c1-2,2-5,3.5-7.4c1-2.5,2.5-5.5,4.5-7.9c3-5.5,7-10.9,11.4-14.9c4-4.5,8.9-7.9,13.4-10.9 c2.5-1.5,5-2.5,7.5-3.5s5-1.5,7.5-2c2.5-0.5,5-1,7.9-1c2.5-0.5,5.5-0.5,8.4-0.5c3-0.5,6-0.5,8.4-0.5c3,0,5.5-0.5,7.5-1 c2-0.5,4.5-0.5,5.5-1c1.5,0,2.5-0.5,2.5-0.5s0.5,0.5,1,2c0.5,1,2,3,2.5,5.5c1,2.5,2,5.5,2,8.4c0.5,3.5,0.5,7,0,10.9 C484.4,184.3,483.4,188.2,481.9,192.7z M371.1,230.9c0.5,0,1,0,1.5,0c1,0,2-0.5,3.5-0.5c1,0,2.5,0,4,0c2.5,0,5.5,0.5,7.9,1 c2.5,0.5,5,1.5,7,2.5c1,0.5,2,1,3,2c1,1,1.5,1.5,2.5,2.5c1,1,1.5,1.5,2,2.5s1.5,2,2,3c1,1,1.5,2,2,3s1.5,2,2,2.5 c0.5,0.5,1,1.5,1.5,2c0.5,0.5,0.5,1,0.5,1s0,0.5-0.5,1c-0.5,0.5-1,1.5-1.5,2c-0.5,1-1.5,2-3,2.5c-1,1-2.5,1.5-4,2.5 c-1.5,0.5-3,1-5,1.5c-1.5,0-3.5,0.5-5.5,0c-2,0-4-0.5-5.5-1c-1.5-0.5-3.5-1.5-5-2c-3-2-6-4-7.9-7c-2-2.5-3.5-6-4-8.4 c-0.5-1.5-0.5-3-0.5-4c0-1.5,0-2.5,0-3.5c0-0.5,0-1,0-1.5c14.9,15.4,25.3,15.9,25.3,15.9C389,248.3,377.6,237.4,371.1,230.9z  M386.5,216.5c-2,1-5,2.5-8.4,5c-3.5,2-7.5,5.5-11.9,9.4c-4,4-8.4,8.9-12.4,14.9c-4,6-7.9,12.4-11.9,19.9c0,0,0,0.5-0.5,0.5h0.5 c2,0,3.5,0,5,0.5c2,0.5,3,1,4.5,1.5c0.5,0.5,1,0.5,2,1c0.5,0.5,1,1,1.5,1.5s1,1,1.5,1.5c0.5,0.5,1,1,1,2c0.5,0.5,1,1.5,1.5,2 c0.5,0.5,1,1,1,1.5c0.5,0.5,1,1,1,1c0,0.5,0.5,0.5,0.5,0.5s0,0-0.5,0.5c0,0.5-0.5,1-1,1.5c-0.5,0.5-1,1-1.5,1.5 c-0.5,0.5-1.5,1-2.5,1.5c-1,0.5-2,0.5-3,1c-1,0-2.5,0-3.5,0c-1,0-2.5-0.5-3.5-0.5c-1-0.5-2-1-3-1.5c-2-1-3.5-2.5-5-4.5 c-0.5-0.5-0.5-1.5-1-2c-1.5,4-3.5,7.5-5,11.9c-6,16.9-10.9,35.8-14.4,54.6c-2,9.9-3.5,20.4-5,30.3c33.3-84.9,109.8-94.4,109.8-94.4 s-63.6,16.4-99.3,102.3c-19.4,46.7-13.9,95.9-14.4,104.3h-10.4h-10.4c-0.5-8.4,5-57.6-14.4-104.3C237.5,295.5,174,279.1,174,279.1 s76.5,9.4,109.8,94.4c-1.5-9.9-3-20.4-5.5-30.3c-3.5-18.9-8.4-37.7-14.4-54.6c-1.5-4.5-3.5-7.9-5-11.9c-0.5,0.5-0.5,1.5-1,2 c-1,1.5-3,3.5-5,4.5c-1,0.5-2,1-3,1.5c-1,0.5-2.5,0.5-3.5,0.5s-2.5,0-3.5,0s-2.5-0.5-3-1c-1-0.5-2-1-2.5-1.5 c-0.5-0.5-1.5-1-1.5-1.5c-0.5-0.5-0.5-1-1-1.5c0-0.5-0.5-0.5-0.5-0.5s0,0,0.5-0.5c0.5-0.5,0.5-1,1-1c0.5-0.5,1-1,1-1.5 c0.5-0.5,1-1,1.5-2c0.5-0.5,1-1.5,1-2c0.5-0.5,1-1,1.5-1.5c0.5-0.5,1-1,1.5-1.5c0.5-0.5,1-1,2-1c1.5-0.5,3-1.5,4.5-1.5 c1.5-0.5,3.5-0.5,5-0.5h0.5c0,0,0-0.5-0.5-0.5c-4-7.4-7.4-13.9-11.9-19.9c-4-6-8.4-10.4-12.4-14.9c-4.5-4-8.4-7-11.9-9.4 c-3.5-2.5-6.5-4-8.4-5c-2-1-3-1.5-3-1.5s1,0.5,3.5,1c2,0.5,6,1,9.9,3c4,1.5,8.9,4.5,13.9,7.4c5,3.5,10.4,7.9,15.9,13.9 c5,5.5,9.9,12.4,14.9,19.9c4.5,7.4,8.9,15.4,12.4,24.3c3.5,8.9,7,17.9,9.9,27.3c2.5,7.9,4,15.9,6,24.3c0-6.5,1.5-104.8,3.5-137.1 c0-2,0-4,0.5-6c2.5-1.5,5-2.5,7.4-4c0,3,0.5,6.5,0.5,9.9c1.5,31.8,2,130.6,2,137.1c2-7.9,3.5-16.4,6-24.3c2.5-9.4,6-18.9,9.4-27.3 c3.5-8.9,7.9-16.9,12.4-24.3c4.5-7.4,9.4-13.9,14.9-19.9c5-6,10.4-10.4,15.9-13.9c5.5-3.5,9.9-6,13.9-7.4c4-2,7.4-2.5,9.4-3 c2-0.5,3.5-1,3.5-1S388.5,215.1,386.5,216.5z M255.4,269.7c-4,4-8.4,7.4-10.9,7.9c0,0,5-0.5,11.9-6.5 C255.9,270.7,255.9,270.2,255.4,269.7z M338.9,272.2c7,6,11.9,6.5,11.9,6.5c-2.5-0.5-7-4.5-10.9-7.9 C339.4,270.2,339.4,270.7,338.9,272.2z M369.7,211.6c-0.5,1.5-1,2.5-1,3.5c-0.5,1-1,2.5-1.5,3c0,0.5-0.5,1-0.5,1.5 c-4.5-8.4-11.9-21.9-10.9-27.3c0,0-2.5,9.9,8.4,28.3c-0.5,0-1,0-1.5-0.5c-1-0.5-2.5-0.5-3.5-1c-1.5-0.5-2.5-1-4-2 c-2.5-1.5-5-3.5-7-6s-3.5-6-4.5-9.4c-0.5-1.5-0.5-3.5-0.5-5.5c0-2,0-4,0.5-5.5c0.5-2,1-3.5,1.5-5c1-1.5,2-3,3-4.5 c1-1.5,2.5-2.5,3.5-3.5c1-1,2.5-1.5,3.5-2c1-0.5,2-0.5,2.5-1c0.5,0,1,0,1,0s0,0.5,0.5,1c0.5,0.5,1,1.5,1.5,2c0.5,1,1,1.5,2,2.5 c0.5,1,1.5,2,2,3c1,1,1.5,2,2,3c1,1,1.5,2,2,3c0.5,1,1,2,1.5,3c0.5,1,0.5,2,1,3.5c0.5,2,1,5,0.5,7.4 C371.1,206.1,370.6,208.6,369.7,211.6z M331.4,250.8c-0.5,0-1.5-0.5-2.5-0.5c-1-0.5-1.5-0.5-2.5-1c-2-1-3.5-2.5-5-4.5s-2.5-4-3-6.5 c-0.5-1-0.5-2.5-0.5-3.5c0-1.5,0-2.5,0.5-4c0.5-1.5,0.5-2.5,1-3.5s1.5-2,2-3c1-1,1.5-1.5,2.5-2.5c0.5-0.5,1.5-1,2.5-1.5 c0.5-0.5,1.5-0.5,1.5-0.5c0.5,0,0.5,0,0.5,0s0,0,0.5,0.5c0,0.5,0.5,1,1,1.5c0.5,0.5,1,1,1.5,2c0.5,0.5,1,1,1.5,2 c0.5,0.5,1,1.5,1.5,2c0.5,0.5,1,1.5,1.5,2c0.5,0.5,1,1.5,1,2c0.5,0.5,0.5,1.5,0.5,2.5c0.5,1.5,0.5,3.5,0.5,5c0,2-0.5,3.5-1,5.5 c0,1-0.5,2-1,2.5c-0.5,0-1,1-1,1.5c0,0.5-0.5,0.5-0.5,1c-3.5-5.5-7.9-14.9-7.4-18.9c0,0-1.5,7,6,19.4 C331.9,250.8,331.9,250.8,331.4,250.8z M343.3,109.3c-0.5,2.5-0.5,4.5-1,7.4c0,2.5-0.5,5-0.5,7.9c0,3-0.5,5.5-0.5,8.4 c0,3-0.5,5.5-1,7.9c-0.5,3-1,5-2,7.4c-1,2.5-2,5-3.5,7.5c-3,4.5-6.5,9.4-10.9,13.4c-4.5,4-9.9,7.9-15.4,10.9c-3,1.5-5.5,3-7.9,4.5 s-5.5,2.5-7.5,3.5c-1.5,0.5-2.5,1-3.5,1.5c5.5-21.4,15.4-56.1,25.3-63.6c0,0-20.9,13.4-31.8,61.6c-0.5-1-1.5-2-2-3 c-1.5-2-3-4.5-4.5-7c-1.5-3-2.5-6-3.5-9.4c-2-6.5-3-13.9-2.5-21.9c0.5-7.9,3-15.4,7.5-22.8c2-3.5,5-7,7.5-10.4c3-3,6.5-6,9.9-8.4 s7.5-4.5,11.4-6s7.9-2.5,11.9-3c4-0.5,7.9-0.5,10.9,0c3,0,6.5,1.5,8.4,2c2.5,0.5,4.5,2,5.5,2.5c1,0.5,2,1,2,1s0,1-0.5,2.5 C343.8,104.8,343.8,106.8,343.3,109.3z M273.8,224c0.5,1,1.5,2,2,3s1,2.5,1,3.5s0.5,2.5,0.5,4c0,1,0,2.5-0.5,3.5 c-0.5,2.5-1.5,4.5-3,6.5c-1.5,2-3,3.5-5,4.5c-1,0.5-2,1-2.5,1.5c-1,0.5-1.5,0.5-2.5,0.5c-0.5,0-1,0-1,0c7.5-12.4,6-19.9,6-19.9 c0.5,3.5-4.5,12.9-7.4,18.9c0-0.5-0.5-0.5-0.5-1c-0.5-0.5-0.5-1.5-1-2c-0.5-1-0.5-1.5-1-2.5c-0.5-2-1-3.5-1-5.5c0-2,0-3.5,0.5-5 c0-1,0.5-1.5,0.5-2.5c0.5-0.5,0.5-1.5,1-2c0.5-0.5,1-1.5,1.5-2c0.5-0.5,1-1,1.5-2c0.5-0.5,1-1.5,1.5-2c0.5-0.5,1-1.5,1.5-2 c0.5-0.5,0.5-1,1-1.5c0-0.5,0.5-0.5,0.5-0.5s0,0,0.5,0s1,0.5,1.5,0.5c0.5,0.5,1.5,0.5,2.5,1.5C272.3,222.5,273.3,223,273.8,224z  M247.5,211.6c-2,2.5-4.5,4.5-7,6c-1.5,0.5-2.5,1.5-4,2c-1,0.5-2.5,1-3.5,1c-0.5,0-1,0-1.5,0.5c10.9-18.4,8.4-28.3,8.4-28.3 c1,5-6.5,18.9-10.9,27.3c0-0.5-0.5-1-0.5-1.5c-0.5-1-1-2-1.5-3c-0.5-1-1-2.5-1-3.5c-0.5-2.5-1.5-5.5-1.5-7.9c0-2.5,0-5,0.5-7.4 c0.5-1,0.5-2.5,1-3.5c0.5-1,1-2,1.5-3c0.5-1,1-2,2-3c0.5-1,1.5-2,2-3c1-1,1.5-2,2-3c1-1,1.5-2,2-2.5c0.5-1,1-1.5,1.5-2 c0.5-0.5,0.5-1,0.5-1s0.5,0,1,0c0.5,0,1.5,0.5,2.5,1c1,0.5,2.5,1,3.5,2c1,1,2.5,2,3.5,3.5c1,1.5,2,3,3,4.5c0.5,1.5,1.5,3.5,1.5,5 c0.5,2,0.5,3.5,0.5,5.5s-0.5,3.5-0.5,5.5C251,206.1,249.5,209.1,247.5,211.6z M226.1,232.9c0,0.5,0,1,0,1.5c0,1,0,2.5,0,3.5 c0,1.5-0.5,2.5-0.5,4c-0.5,3-2,6-4,8.4s-4.5,5-7.9,7c-1.5,1-3.5,1.5-5,2c-1.5,0.5-3.5,1-5.5,1c-2,0-4,0-5.5,0c-2-0.5-3.5-1-5-1.5 c-1.5-0.5-3-1.5-4-2.5c-1-1-2-2-3-2.5c-0.5-1-1-1.5-1.5-2c-0.5-0.5-0.5-1-0.5-1s0-0.5,0.5-1c0.5-0.5,1-1,1.5-2c0.5-1,1.5-1.5,2-2.5 c0.5-1,1-2,2-3c0.5-1,1.5-2,2-3c0.5-1,1.5-2,2-2.5c0.5-1,1.5-1.5,2.5-2.5c1-0.5,2-1.5,3-2c2-1,4.5-2,7-2.5c2.5-0.5,5.5-1,7.9-1 c1.5,0,2.5,0,4,0s2.5,0.5,3.5,0.5c0.5,0,1,0,1.5,0c-7,7-17.9,17.4-23.3,17.9C201.3,248.8,211.7,248.3,226.1,232.9z M141.2,184.3 c0,0,13.4,20.4,62.6,31.3c-1,0.5-2,1.5-3,2c-2,1.5-4.5,3-7.4,4c-3,1.5-6,2.5-9.4,3.5c-6.5,2-14.4,3-21.9,2.5 c-7.9-0.5-15.9-3-22.8-7.4c-3.5-2-7-4.5-10.4-7.4c-3.5-3-6-6.5-8.4-9.4c-2.5-3.5-4.5-7.4-6-11.4c-1.5-4-2.5-7.9-3-11.9 c-0.5-4-0.5-7.4,0-10.9c0-3,1.5-6.5,2-8.4c0.5-2.5,2-4.5,2.5-5.5c-0.5,0,0.5-1,0.5-1s1,0,2.5,0.5c1.5,0.5,3.5,0.5,5.5,1 c2.5,0.5,5,0.5,7.4,1c2.5,0,5.5,0.5,8.4,0.5c3,0,6,0.5,8.4,0.5c3,0,5.5,0.5,7.9,1c3,0.5,5,1.5,7.9,2c2.5,1,5,2,7.4,3.5 c5,3,9.4,6.5,13.4,10.9c4.5,4.5,7.9,9.4,11.4,14.9c1.5,2.5,3,5.5,4.5,7.9c1.5,2.5,2.5,5.5,3.5,7.4c0.5,1.5,1,2.5,1.5,3.5 C183.4,203.6,148.6,193.7,141.2,184.3z M119.8,237.4c2,0,4,0,6,0c2,0,4,0.5,6,0.5c2,0.5,3.5,1,5.5,1.5c3.5,1.5,7.4,3.5,10.9,6.5 c3.5,2.5,7,6,9.9,9.4c1.5,1.5,3,3.5,4,5.5c1,1.5,2.5,3.5,3,5c0.5,1,1,1.5,1.5,2.5c-16.4-1.5-42.2-4.5-48.7-10.4 c0,0,11.9,12.9,48.2,15.4c-0.5,0.5-1,1.5-2,2c-1.5,1-3,2.5-5,4c-2,1.5-4,2.5-6,3.5c-4.5,2-9.9,4-15.4,4c-5.5,0.5-11.4-0.5-17.4-2.5 c-3-1-5.5-2.5-8.4-4c-2.5-1.5-5-4-7.4-6c-2-2.5-4-5-5.5-7.5c-1.5-2.5-3-5.5-3.5-7.9c-1-3-1-5.5-1.5-7.9c0-2.5,0.5-4.5,0.5-6.5 c0-1.5,1-3,1-4c0.5-1,0.5-1.5,0.5-1.5h1.5c1,0,2.5,0,4,0c1.5,0,3.5,0,5.5,0c2,0,4-0.5,6-0.5C116.4,237.4,118.3,237.4,119.8,237.4z M160.6,314.9c0.5-1,1-1.5,1.5-3c0.5-1,1-2,1.5-3c0.5-1,1-2,1.5-3c0.5-1,1-2,1.5-3c0.5-1,1.5-2,2-2.5c0.5-1,1.5-1.5,2.5-2.5 c2-1.5,4-2.5,6.5-3.5c2.5-1,5-1.5,7.9-2c1.5-0.5,2.5-0.5,4-0.5c1,0,2.5,0,3.5,0c0.5,0,1,0,1.5,0c-5.5,7.9-14.9,19.9-19.9,21.4 c0,0,10.4-2,22.4-19.4c0,0.5,0.5,1,0.5,1.5c0,1,0.5,2.5,0.5,3.5c0,1.5,0,2.5,0,4c0,3-1,6-2.5,8.9c-1.5,3-3.5,6-6.5,7.9 c-1.5,1-3,2-4.5,3c-1.5,1-3.5,1.5-5.5,2c-2,0.5-3.5,0.5-5.5,0.5s-3.5-0.5-5.5-0.5c-1.5-0.5-3-1-4.5-1.5c-1-0.5-2.5-1.5-3-2 c-1-0.5-1.5-1.5-2-2c0.5-1.5,0.5-1.5,0.5-1.5s0-0.5,0.5-1C160.1,316.9,160.1,315.4,160.6,314.9z M397.5,294.5c0-0.5,0-1,0.5-1.5 c11.9,17.4,22.4,19.4,22.4,19.4c-5-1.5-14.4-13.4-19.9-21.4c0.5,0,1,0,1.5,0c1,0,2.5,0,3.5,0c1.5,0,2.5,0,4,0.5 c2.5,0.5,5.5,1,7.9,2c2.5,1,4.5,2.5,6.5,3.5c1,1,2,1.5,2.5,2.5c1,1,1.5,1.5,2,2.5c0.5,1,1,2,1.5,3c0.5,1,1,2,1.5,3c0.5,1,1,2,1.5,3 c0.5,1,1,2,1.5,3c0.5,1,1,1.5,1.5,2c0.5,0.5,0.5,1,0.5,1s0,0.5-0.5,1c-0.5,0.5-1,1-2,2c-1,0.5-2,1.5-3,2c-1,0.5-2.5,1.5-4.5,1.5 c-1.5,0.5-3.5,0.5-5.5,0.5c-1.5,0-3.5,0-5.5-0.5c-1.5-0.5-3.5-1-5.5-2c-1.5-1-3-2-4.5-3c-3-2.5-5-5-6.5-7.9c-1.5-3-2.5-6-2.5-8.9 c0-1.5,0-3,0-4C397,297,397.5,295.5,397.5,294.5z"
                  fill="currentColor"/>
        </g>
        <g id="06">
            <path d="M297.6,0c138.1,0,290.5,152.5,290.5,290.5S435.7,581.1,297.6,581.1S7.1,428.6,7.1,290.5S159.6,0,297.6,0z"/>
            <path d="M297.6,5c63.6,0,135.6,34.3,193.7,91.9c57.6,57.6,91.9,130.1,91.9,193.7S549,426.1,491.3,484.2 c-57.6,57.6-130.1,91.9-193.7,91.9S162,541.8,103.9,484.2C46.3,426.1,12,354.1,12,290.5S46.3,155,103.9,96.9 C162,39.2,234.1,5,297.6,5 M297.6,0C159.6,0,7.1,152.5,7.1,290.5S159.6,581,297.6,581s290.5-152.5,290.5-290.5S435.7,0,297.6,0 L297.6,0z"
                  fill="#dfdfdf"/>
            <path d="M481.4,399.3h-2.5c-5,11.4-15.9,19.4-29.3,19.4c-12.9,0-24.3-7.9-29.3-19.4H218.7 c-5,11.4-15.9,19.4-29.3,19.4c-12.9,0-24.3-7.9-29.3-19.4h-47.2c-10.4,0-18.9-8.4-18.9-19.4V194.7c0-17.4,14.4-31.8,31.8-31.8H464 c12.9,0,23.8,9.9,25.8,22.8l10.4,79c0,0.5,0,0.5,0,1v115.2C500.8,391.4,492.3,399.3,481.4,399.3z M450.1,406.3 c10.4,0,18.9-8.4,18.9-19.4c0-10.4-8.4-19.4-18.9-19.4s-18.9,8.4-18.9,19.4C430.7,396.8,439.2,406.3,450.1,406.3z M367.7,322.3h70 v-44.7h-70V322.3z M316.5,386.4h38.2v-57.6l0,0l0,0v-51.2h-38.2V386.4z M265.9,329.3L265.9,329.3L265.9,329.3v57.6h38.2V278.1 h-38.2V329.3z M189.9,406.3c10.4,0,18.9-8.4,18.9-19.4c0-10.4-8.4-19.4-18.9-19.4c-10.4,0-18.9,8.4-18.9,19.4 C170.5,396.8,179.4,406.3,189.9,406.3z M487.9,277.6H475v44.7h12.9V277.6z M487.9,367.5c-3.5,0-6.5-3-6.5-6.5s3-6.5,6.5-6.5v-19.4 H475c-7,0-12.9-6-12.9-12.9v-44.7c0-7,5.5-12.9,12.9-12.9h12.4l-10.4-78c-1-6.5-6.5-11.4-12.9-11.4H126.3 c-10.4,0-18.9,8.4-18.9,19.4v159.9h44.2c3.5,0,6.5,3,6.5,6.5s-3,6.5-6.5,6.5h-44.2v12.9c0,3.5,3,6.5,6.5,6.5h44.2 c0-17.9,14.4-31.8,31.8-31.8s31.8,14.4,31.8,31.8h31.8v-19.4h-25.3c-3.5,0-6.5-3-6.5-6.5s3-6.5,6.5-6.5h25.3v-19.4H132.7 c-7,0-12.9-6-12.9-12.9v-44.7c0-7,5.5-12.9,12.9-12.9h304.5c7,0,12.9,6,12.9,12.9v44.7c0,7-5.5,12.9-12.9,12.9h-69.5v19.4h44.2 c3.5,0,6.5,3,6.5,6.5s-3,6.5-6.5,6.5h-44.2v19.4h50.7c0-17.9,14.4-31.8,31.8-31.8s31.8,14.4,31.8,31.8c3.5,0,6.5-3,6.5-6.5 L487.9,367.5L487.9,367.5z M253.4,322.3v-44.7h-57.1v44.7H253.4z M183.4,322.3v-44.7h-50.7v44.7H183.4z M132.7,232.9 c-7,0-12.9-6-12.9-12.9v-25.8c0-7,5.5-12.9,12.9-12.9h326.8c6.5,0,11.4,5,12.4,11.9l0,0l3,25.3c0.5,3.5-0.5,6.5-3,9.4 c-2.5,3-6,4.5-9.9,4.5L132.7,232.9L132.7,232.9z M183.4,195.2h-50.7V221h50.7V195.2z M253.4,195.2h-57.1V221h57.1V195.2z M323,195.2h-57.1V221H323V195.2z M393,195.2h-57.1V221H393V195.2z M459.6,195.7c0-0.5,0-0.5-0.5-1h-53.6v25.8h57.1L459.6,195.7z M189.9,379.9L189.9,379.9c3.5,0,6.5,3,6.5,6.5s-3,6.5-6.5,6.5s-6.5-3-6.5-6.5S186.4,379.9,189.9,379.9z M450.1,379.9L450.1,379.9 c3.5,0,6.5,3,6.5,6.5s-3,6.5-6.5,6.5s-6.5-3-6.5-6.5S446.6,379.9,450.1,379.9z"
                  fill="currentColor"/>
        </g>
        <g id="07">
            <path d="M297.6,0c138.1,0,290.5,152.5,290.5,290.5S435.7,581.1,297.6,581.1S7.1,428.6,7.1,290.5S159.6,0,297.6,0z"/>
            <path d="M297.6,5c63.6,0,135.6,34.3,193.7,91.9c57.6,57.6,91.9,130.1,91.9,193.7S549,426.1,491.3,484.2 c-57.6,57.6-130.1,91.9-193.7,91.9S162,541.8,103.9,484.2C46.3,426.1,12,354.1,12,290.5S46.3,155,103.9,96.9 C162,39.2,234.1,5,297.6,5 M297.6,0C159.6,0,7.1,152.5,7.1,290.5S159.6,581,297.6,581s290.5-152.5,290.5-290.5S435.7,0,297.6,0 L297.6,0z"
                  fill="#dfdfdf"/>
            <path d="M108.4,297l-23.3-28.3L297.6,97.3l212.6,171.3L486.4,297L297.6,144.5L108.4,297z M316,418.7v-27.3h-36.8v32.8h-17.9 c12.4,20.9,35.8,60.1,36.3,60.1c0,0,23.3-38.7,36.3-60.1H316L316,418.7L316,418.7z M342.3,427.1l7.9-12.9h-24.8v-32.8h-55.6v32.8h1 H245l8.9,12.9h-93.4V290.5l137.1-111.3l137.1,111.3v136.6H342.3z M294.2,322.8h-50.7v46.7h50.7V322.8z M294.2,270.2h-50.7v46.7 h50.7V270.2z M301.1,316.9h50.7v-46.7h-50.7V316.9z M351.8,369.5v-46.7h-50.7v46.7H351.8z"
                  fill="currentColor"/>
        </g>
        <g id="08">
            <path d="M297.6,0c138.1,0,290.5,152.5,290.5,290.5S435.7,581.1,297.6,581.1S7.1,428.6,7.1,290.5S159.6,0,297.6,0z"/>
            <path d="M297.6,5c63.6,0,135.6,34.3,193.7,91.9c57.6,57.6,91.9,130.1,91.9,193.7S549,426.1,491.3,484.2 c-57.6,57.6-130.1,91.9-193.7,91.9S162,541.8,103.9,484.2C46.3,426.1,12,354.1,12,290.5S46.3,155,103.9,96.9 C162,39.2,234.1,5,297.6,5 M297.6,0C159.6,0,7.1,152.5,7.1,290.5S159.6,581,297.6,581s290.5-152.5,290.5-290.5S435.7,0,297.6,0 L297.6,0z"
                  fill="#dfdfdf"/>
            <path d="M469,382.4v31.3c0,13.4-10.9,24.8-24.3,24.8c-13.4,0-24.3-10.9-24.3-24.8v-31.3c0-7,0-14.4,5.5-19.9 c4-4,10.4-6,18.9-6c8.9,0,14.9,2,18.9,6C469,368,469,376,469,382.4z M460,382.4c0-5.5,0-10.4-2.5-13.4c-2-2-6.5-3.5-12.9-3.5 c-6.5,0-10.4,1-12.9,3.5c-2,2-2.5,5-2.5,7.9h10.4c2.5,0,4.5,2,4.5,4.5s-2,4.5-4.5,4.5h-10.4v8.4h10.4c2.5,0,4.5,2,4.5,4.5 s-2,5-4.5,5h-10.4v7.5h10.4c2.5,0,4.5,2,4.5,4.5c0,2.5-2,4.5-4.5,4.5h-8.9c2.5,5.5,7.9,9.4,13.9,9.4c8.4,0,15.4-7,15.4-15.4V382.4z M443.7,351.6c-2.5,0-4.5-2-4.5-5l2.5-54.1c-44.2,14.9-90.4,22.4-137.1,23.3v108.8c0,2.5-2,4.5-4.5,4.5s-4.5-2-4.5-4.5v-92.4 c-33.8,0-67.5-4-100.8-11.4c-0.5,0-0.5,0-1,0c-13.9-3.5-27.8-7-41.7-11.4l2.5,34.8c0,2.5-1.5,4.5-4,5c0,0,0,0-0.5,0 c-2.5,0-4.5-2-4.5-4l-3-41.7c0-1.5,0.5-3,2-4c1-1,3-1,4-0.5c14.9,5,29.8,9.4,44.7,12.9c9.4-15.4,24.8-26.8,45.7-34.8l-0.5-5 c0-2.5,1.5-4.5,4-5c2.5,0,4.5,2,4.5,4.5l1,19.4l13.4-5c2.5-1,5,0.5,5.5,3c1,2.5-0.5,5-2.5,6l-18.9,7c-0.5,0-1,0.5-1.5,0.5 c-1,0-1.5,0-2.5-1c-1-1-2-2-2-3.5l-0.5-11.4c-16.9,6.5-29.3,15.4-37.3,27.3c30.8,6.5,61.6,9.9,92.9,9.9v-11.9c0-2.5,2-4.5,4.5-4.5 c26.3,0,52.6-2.5,78.5-7.4c-6.5-5.5-14.4-9.9-23.8-13.4l-0.5,11.4c0,1.5-1,3-2,3.5c-0.5,0.5-1.5,1-2.5,1c-0.5,0-1,0-1.5-0.5 l-17.9-7.5c-2.5-1-3.5-3.5-2.5-6c1-2.5,3.5-3.5,5.5-3l13.4,5l1-19.4c0-2.5,2.5-4.5,5-4.5s4.5,2.5,4,5l-0.5,4.5 c13.9,5,25.8,12.4,34.3,20.9c18.9-4,37.7-8.9,55.6-15.4c1.5-0.5,3,0,4,0.5c1,1,2,2.5,2,4l-3,60.6 C448.1,349.7,446.1,351.6,443.7,351.6z M356.2,230c-4.5,41.7-37.3,60.6-59.1,60.6c-22.4,0-54.6-18.9-59.1-60.6 c-6.5-3.5-15.4-11.9-14.9-27.8c0-3,0.5-11.9,6.5-14.4c6.5-2.5,12.4,4,13.9,5.5c1.5,2,1.5,4.5,0,6.5c-2,1.5-4.5,1.5-6.5,0 c-1-1.5-3-2.5-4-3c-0.5,0.5-1,2-1,6c-0.5,15.9,11.4,19.9,11.4,19.9c1.5,0.5,2.5,1.5,3,3v0.5c0,0.5,0,0.5,0,1 c3.5,41.2,35.8,54.6,50.7,54.6s47.2-13.4,50.7-54.6c0-0.5,0-0.5,0-1v-0.5c0.5-1.5,1.5-2.5,3-3c0.5,0,11.9-4.5,11.4-19.9 c0-4-0.5-5.5-1-6c-1,0.5-3,1.5-4,3c-1.5,2-4.5,2-6.5,0c-2-1.5-2-4.5,0-6.5c1-1.5,7.4-7.9,13.9-5.5c6.5,2.5,6.5,11.4,6.5,14.4 C371.6,218,362.7,227,356.2,230z M290.2,201.6c1.5,0,2.5,0.5,3.5,1.5c0,0.5,0.5,0.5,0.5,1h6c0-0.5,0.5-0.5,0.5-1c1-1,2-1.5,3.5-1.5 h35.3c1,0,2.5,0.5,3,1.5c1,1,1.5,2,1.5,3.5c0,4.5-1,18.4-7,23.3c-4,3-9.9,5.5-15.9,5.5c-5.5,0-10.4-2-13.4-5 c-3-3.5-5.5-10.9-6.5-16.4h-7.4c-1,5.5-3.5,12.9-6.5,16.4c-3,3.5-7.9,5-13.4,5c-6,0-11.9-2-15.9-5.5c-6-5-7-19.4-7-23.3 c0-1,0.5-2.5,1.5-3.5c1-1,2-1.5,3-1.5H290.2z M314,223.5c1.5,1.5,4,2,7,2c4,0,7.9-1.5,10.4-3c1.5-1.5,3-6.5,3.5-11.9h-24.8 C310.6,216,312,222,314,223.5z M263.4,222.5c2.5,2,6.5,3,10.4,3c3,0,5.5-1,7-2c1.5-2,3.5-7.9,4.5-12.9h-24.8 C260.4,216,261.9,221.5,263.4,222.5z M364.7,182.3c-22.4,5-45.2,7.5-68,7.5c-22.8,0-45.7-2.5-68-7.5c-2-0.5-3.5-2.5-3.5-5 c3-30.8,24.8-56.6,52.6-64.6v-5.5c0-2.5,2-4.5,4.5-4.5s4.5,2,4.5,4.5v3.5c3-0.5,6.5-1,9.9-1c3.5,0,6.5,0.5,9.9,1v-3.5 c0-2.5,2-4.5,4.5-4.5s4.5,2,4.5,4.5v5.5c27.8,7.9,49.7,33.3,52.6,64.6C368.7,179.3,367.2,181.8,364.7,182.3z M315.5,122.2v13.9 c0,2.5-2,4.5-4.5,4.5s-4.5-2-4.5-4.5v-16.4c-3-0.5-6.5-1-9.9-1c-3.5,0-6.5,0.5-9.9,1v16.4c0,2.5-2,4.5-4.5,4.5s-4.5-2-4.5-4.5 v-13.9c-21.9,7.5-39.2,27.3-43.2,52.2c40.7,8.4,83.4,8.4,123.7,0C355.3,149.5,337.9,129.6,315.5,122.2z M269.3,169.4 c-2.5-0.5-4-3-3.5-5.5c0.5-2.5,3-4,5.5-3.5c16.9,4,34.8,4,51.2,0c2.5-0.5,5,1,5.5,3.5c0.5,2.5-1,5-3.5,5.5c-8.9,2-18.4,3-27.8,3 C287.7,172.3,278.3,171.4,269.3,169.4z M173,360.1c5.5,6,5.5,13.9,5.5,21.4v33.8c0,14.4-11.4,26.3-25.8,26.3 c-14.4,0-25.8-11.9-25.8-26.3v-33.8c0-7,0-15.4,5.5-21.4c4.5-4.5,10.9-6.5,20.4-6.5C162,353.6,168.5,356.1,173,360.1z M135.2,381.4 v33.8c0,9.4,7.4,17.4,16.9,17.4c7,0,13.4-4.5,15.9-10.9h-10.4c-2.5,0-4.5-2-4.5-4.5s2-4.5,4.5-4.5H169v-8.9h-11.4 c-2.5,0-4.5-2-4.5-4.5s2-4.5,4.5-4.5h11.9v-9.4h-11.9c-2.5,0-4.5-2-4.5-4.5c0-2.5,2-4.5,4.5-4.5H169c0-4-1-7.5-3-9.4 c-2.5-2.5-7-4-13.9-4c-7,0-11.4,1.5-13.9,4C135.2,369.5,135.2,375.5,135.2,381.4z"
                  fill="currentColor"/>
        </g>
        <g id="09">
            <path d="M297.6,0c138.1,0,290.5,152.5,290.5,290.5S435.7,581.1,297.6,581.1S7.1,428.6,7.1,290.5S159.6,0,297.6,0z"/>
            <path d="M297.6,5c63.6,0,135.6,34.3,193.7,91.9c57.6,57.6,91.9,130.1,91.9,193.7S549,426.1,491.3,484.2 c-57.6,57.6-130.1,91.9-193.7,91.9S162,541.8,103.9,484.2C46.3,426.1,12,354.1,12,290.5S46.3,155,103.9,96.9 C162,39.2,234.1,5,297.6,5 M297.6,0C159.6,0,7.1,152.5,7.1,290.5S159.6,581,297.6,581s290.5-152.5,290.5-290.5S435.7,0,297.6,0 L297.6,0z"
                  fill="#dfdfdf"/>
            <path d="M474,341.7h12.4L468,374l-18.4-32.3H462v-75.5h-12.4l18.4-32.3l18.4,32.3H474V341.7z M415.8,379.9h64.1 c3.5,0,6,2.5,6,6.5c0,3.5-2.5,6.5-6,6.5h-64.1v60.6c0,3.5-2.5,6.5-6,6.5c-3.5,0-6-2.5-6-6.5v-61.1h-23.8V270.7h-59.6v121.7h-154 v85.9c0,3.5-2.5,6.5-6,6.5s-6-2.5-6-6.5V221.5h-45.7L286.7,96.8l177.8,124.7h-48.7L415.8,379.9L415.8,379.9z M284.7,270.7h-71.5 v61.1h71.5V270.7z M213.2,441h154.5v-12.4h0.5l31.8,18.9l-31.8,18.9V454h-155v12.4l-31.8-18.9l31.8-18.9V441z"
                  fill="currentColor"/>
        </g>
        <g id="10">
            <path d="M297.6,0c138.1,0,290.5,152.5,290.5,290.5S435.7,581.1,297.6,581.1S7.1,428.6,7.1,290.5S159.6,0,297.6,0z"/>
            <path d="M297.6,5c63.6,0,135.6,34.3,193.7,91.9c57.6,57.6,91.9,130.1,91.9,193.7S549,426.1,491.3,484.2 c-57.6,57.6-130.1,91.9-193.7,91.9S162,541.8,103.9,484.2C46.3,426.1,12,354.1,12,290.5S46.3,155,103.9,96.9 C162,39.2,234.1,5,297.6,5 M297.6,0C159.6,0,7.1,152.5,7.1,290.5S159.6,581,297.6,581s290.5-152.5,290.5-290.5S435.7,0,297.6,0 L297.6,0z"
                  fill="#dfdfdf"/>
            <path d="M426.8,438.6c-1,8.4-2,15.4-4,22.8v0.5c0,0.5-1,1-1.5,1h-11.9c-0.5,0-1,0-1.5-0.5c-0.5-0.5-0.5-1,0-1.5 l0.5-1.5c2-6.5,3.5-13.4,4-20.9c1.5-15.4,2-31.8,2-50.7c0-15.4-1-32.3-2.5-51.7c-0.5-7.9-1-15.9-2-25.3v-1.5c-0.5-6-1-11.9-3-17.4 c-3-8.4-9.9-14.4-16.9-20.4c-4.5-4-7.9-7-11.4-10.9l-1-1c-2.5-3-4-4.5-5.5-7.4l-33.3,33.3l-0.5,0.5c0,0,0,0-0.5,0.5 c-0.5,0-0.5,0.5-1,0.5l0,0c-0.5,0-1,0-1-0.5l-0.5-0.5L323,273.2l-15.4,14.9l20.9,172.3c0,0.5,0,1-0.5,1.5l-29.3,23.8 c-0.5,0-0.5,0.5-1,0.5s-0.5,0-1-0.5l-29.3-23.8c-0.5-0.5-0.5-1-0.5-1.5l20.9-172.3l-15.4-14.9l-12.4,12.4l-0.5,0.5 c-0.5,0.5-0.5,0.5-1,0.5l0,0c-0.5,0-1,0-1-0.5l-1-1l-33.3-33.3c-1.5,3-3,4.5-5.5,7.4l-1,1c-3.5,4-7,7.5-11.4,10.9 c-7,6-13.9,11.9-16.9,20.4c-2,5.5-2.5,10.9-3,16.9v1.5c-1,9.4-1.5,17.9-2,25.3c-1.5,19.9-2,36.3-2.5,51.7c0,18.9,0.5,35.8,2,50.7 c1,7.5,2,14.4,4,20.9l0.5,1.5c0,0.5,0,1,0,1.5c-0.5,0.5-1,0.5-1.5,0.5h-11.4c-0.5,0-1.5-0.5-1.5-1v-0.5c-2-7-3.5-14.4-4-22.8 c-1.5-15.9-2-32.8-2-52.2c0-15.9,1-33.3,2.5-52.6c0.5-7.9,1.5-16.4,2-25.3v-1c0.5-6.5,1-13.4,4-20.4c2-5.5,5-10.4,8.9-14.9 c3.5-4,7-7,10.9-10.4l0,0c4-3.5,7.4-6.5,10.4-9.9c3-3.5,5.5-7,7.4-11.9l0.5-1.5c0-0.5,0.5-1,1-1c0,0,0,0,0.5,0c0.5,0,0.5,0,1,0.5 l41.7,35.8l38.7-38.2c0.5-0.5,0.5-0.5,1-0.5s1,0,1,0.5l38.7,38.2l40.7-34.8l1.5-1.5c0.5,0,0.5-0.5,1-0.5h0.5c0.5,0,1,1,1,1.5v1.5 c2,4.5,4.5,7.9,7.5,11.4c3,3.5,6.5,6.5,10.4,9.9l0,0c3.5,3,7.5,6.5,10.9,10.4c4,4.5,7,9.4,8.9,14.9c2.5,6.5,3.5,13.4,4,20.4v1 c1,8.9,1.5,17.4,2,25.3c1.5,19.4,2,36.8,2.5,52.6C428.8,405.3,428.3,422.2,426.8,438.6z M343.3,203.1 c-11.9,11.9-28.3,18.4-45.2,18.4s-33.3-6.5-45.2-18.4s-18.9-27.8-18.9-44.7s6.5-32.8,18.9-44.7c11.9-11.9,28.3-18.4,45.2-18.4 s33.3,6.5,45.2,18.4s18.9,27.8,18.9,44.7S355.3,191.2,343.3,203.1z M298.1,108.3c-27.8,0-50.2,22.3-50.2,49.7s22.4,49.7,50.2,49.7 s50.2-22.3,50.2-49.7S325.5,108.3,298.1,108.3z"
                  fill="currentColor"/>
        </g>
        <g id="apps">
            <path d="M12.000,16.000 L12.000,12.000 L16.000,12.000 L16.000,16.000 L12.000,16.000 ZM12.000,6.000 L16.000,6.000 L16.000,10.000 L12.000,10.000 L12.000,6.000 ZM12.000,-0.000 L16.000,-0.000 L16.000,4.000 L12.000,4.000 L12.000,-0.000 ZM6.000,12.000 L10.000,12.000 L10.000,16.000 L6.000,16.000 L6.000,12.000 ZM6.000,6.000 L10.000,6.000 L10.000,10.000 L6.000,10.000 L6.000,6.000 ZM6.000,-0.000 L10.000,-0.000 L10.000,4.000 L6.000,4.000 L6.000,-0.000 ZM-0.000,12.000 L4.000,12.000 L4.000,16.000 L-0.000,16.000 L-0.000,12.000 ZM-0.000,6.000 L4.000,6.000 L4.000,10.000 L-0.000,10.000 L-0.000,6.000 ZM-0.000,-0.000 L4.000,-0.000 L4.000,4.000 L-0.000,4.000 L-0.000,-0.000 Z"/>
        </g>
    </defs>
</svg>
